<svg width="655" height="1163" viewBox="0 0 655 1163" fill="none" xmlns="http://www.w3.org/2000/svg">
<g clip-path="url(#clip0_2545_935)">
<rect width="1162.87" height="654.113" transform="translate(654.113 2.85922e-05) rotate(90)" fill="url(#paint0_linear_2545_935)"/>
<path d="M902.664 659.554C902.664 749.439 829.798 822.305 739.913 822.305C671.517 822.305 612.979 780.113 588.896 720.338C574.834 705.393 565.151 686.281 561.899 665.051C547.983 671.978 532.292 675.875 515.69 675.875C458.345 675.875 411.858 629.388 411.857 572.043C411.857 514.698 458.345 468.21 515.69 468.21C532.473 468.21 548.325 472.193 562.354 479.263C561.265 472.42 560.696 465.404 560.696 458.255C560.696 402.475 595.142 354.743 643.921 335.162C643.878 333.91 643.854 332.653 643.854 331.391C643.854 271.788 692.171 223.471 751.773 223.471C811.376 223.471 859.693 271.788 859.693 331.391C859.693 365.595 843.78 396.081 818.954 415.854C823.445 429.167 825.878 443.427 825.878 458.255C825.878 478.298 821.431 497.303 813.469 514.336C866.395 541.197 902.664 596.139 902.664 659.554Z" fill="#DDF6FF"/>
<path d="M-184.425 111.881C-161.099 13.2479 -62.231 -47.8004 36.4021 -24.4741C124.222 -3.70481 182.245 76.9507 177.447 164.006C181.732 164.619 186.027 165.43 190.321 166.445C264.42 183.969 311.43 255.936 299.002 329.956C317.329 326.884 336.558 327.337 355.775 331.882C433.015 350.149 480.822 427.573 462.555 504.812C460.599 513.084 457.961 521.016 454.721 528.567C470.505 528.082 486.612 529.64 502.713 533.447C601.346 556.774 662.394 655.642 639.068 754.275C615.741 852.908 516.873 913.956 418.24 890.63C390.824 884.146 366.313 871.823 345.709 855.293C302.256 902.928 234.953 926.199 167.757 910.308C121.288 899.318 83.1644 871.56 58.2734 834.96C35.6344 873.035 -9.84222 893.785 -55.2322 883.05C-111.212 869.811 -145.86 813.698 -132.621 757.719C-125.921 729.388 -108.239 706.521 -85.1504 692.56C-120.402 649.785 -135.942 591.602 -122.201 533.5C-121.017 528.496 -119.636 523.589 -118.073 518.784C-196.193 483.194 -240.895 396.307 -220.389 309.597C-212.642 276.839 -196.56 248.228 -174.923 225.476C-189.588 190.804 -193.753 151.324 -184.425 111.881Z" fill="white"/>
<rect x="0.00390625" y="472.479" width="657.258" height="210.499" fill="url(#paint1_linear_2545_935)" fill-opacity="0.41"/>
<rect x="0.00390625" y="682.713" width="657.258" height="480.177" fill="url(#paint2_linear_2545_935)"/>
<path d="M306.803 539.732C308.54 539.727 310.351 539.753 311.523 539.893L311.524 539.892C313.503 540.114 315.351 540.999 316.764 542.404L317.075 542.729C318.588 544.383 319.432 546.547 319.432 548.799L319.422 549.256C319.317 551.534 318.367 553.699 316.75 555.321L316.74 555.331C314.129 557.904 311.365 557.958 308.735 557.881L308.742 584.707L367.574 584.713L367.543 569.814C367.189 569.747 366.839 569.654 366.493 569.522C365.655 569.2 364.926 568.694 364.251 568.005H364.25C363.045 566.772 362.39 565.102 362.44 563.376L362.458 563.04C362.587 561.376 363.351 559.819 364.598 558.697L364.837 558.492C365.094 558.285 365.4 558.075 365.71 557.896C366.076 557.684 366.664 557.386 367.278 557.332C373.678 556.768 380.362 557.153 386.579 557.125C388.486 557.117 390.157 558.062 391.282 559.367V559.368C392.421 560.69 392.98 562.415 392.829 564.154L392.828 564.157C392.556 567.231 390.389 569.257 387.714 569.806L387.718 584.706C390.796 584.721 393.874 584.772 396.804 584.683C402.863 584.497 407.795 586.459 411.584 589.799C415.347 593.115 417.913 597.727 419.415 602.77C422.404 612.804 421.299 624.965 416.47 633.141L416.471 633.142C415.88 634.143 415.268 635.092 414.631 636.015C414.658 636.017 414.685 636.018 414.712 636.021C415.805 636.116 417.287 636.391 418.289 637.419C420.026 639.2 421.678 641.821 422.929 643.672H422.93L429.035 652.703L429.96 654.051C432.151 657.213 434.539 660.507 436.537 663.868L436.622 664.02C437.03 664.783 437.181 665.669 437.225 666.345L437.239 666.735L437.235 667.084C437.169 668.826 436.443 670.483 435.195 671.713L435.19 671.718C434.442 672.45 433.35 672.806 432.394 673.01C431.378 673.227 430.222 673.33 429.1 673.377C426.899 673.469 424.463 673.35 423.325 673.349H423.324L407.896 673.32L406.378 673.317L406.385 671.8C406.39 670.525 406.383 669.197 406.391 667.88C404.222 667.894 402.053 667.896 399.885 667.884C398.234 677.848 388.615 684.997 378.6 684.16H378.595C373.179 683.69 368.172 681.09 364.671 676.93C362.71 674.608 361.601 672.435 360.759 669.778C355.573 669.873 350.109 669.811 344.95 669.787C344.615 670.845 344.206 671.878 343.72 672.877L343.717 672.883C341.319 677.76 337.065 681.473 331.908 683.189L331.907 683.189C331.46 683.339 331.011 683.47 330.563 683.586C330.481 683.607 330.398 683.628 330.33 683.645C330.084 683.705 329.835 683.761 329.584 683.813C329.332 683.864 329.08 683.911 328.83 683.952C327.902 684.105 326.966 684.193 326.028 684.213C322.74 684.283 319.453 683.535 316.478 681.991V681.99C311.001 679.187 308.085 675.067 306.166 669.774C303.854 669.783 298.952 669.759 294.255 669.751C291.379 669.746 288.566 669.748 286.432 669.769C285.363 669.779 284.474 669.794 283.836 669.814C283.734 669.818 283.639 669.824 283.553 669.827C280.389 675.199 276.052 679.243 270.205 681.787L270.204 681.786C263.372 684.826 255.605 684.987 248.652 682.234C241.691 679.487 236.37 674.575 233.18 667.885C231.397 667.936 229.215 668.041 227.185 667.863C224.812 667.656 222.273 667.048 220.351 665.289L220.166 665.115C217.013 662.042 216.79 657.424 216.884 653.518C216.949 650.815 217.165 648.466 217.022 646.405V646.403C216.936 645.142 217.302 643.651 217.812 642.374C218.324 641.095 219.084 639.769 219.998 638.912C221.748 637.132 223.857 636.409 225.934 636.122C227.415 635.918 228.983 635.927 230.419 635.949L230.475 557.875C227.933 557.93 224.914 557.825 222.5 555.467C218.925 551.973 218.695 546.136 222.307 542.49L222.726 542.087C223.705 541.192 224.705 540.607 225.823 540.256C227.06 539.867 228.351 539.796 229.718 539.791H229.722C247.831 539.776 266.153 539.806 284.246 539.802L302.073 539.777L304.209 539.756C305.024 539.746 305.916 539.735 306.803 539.732Z" fill="#FF66B6" stroke="black" stroke-width="3.0283"/>
<path d="M231.995 556.319C228.953 556.362 225.936 556.693 223.564 554.376C220.561 551.442 220.394 546.57 223.387 543.548C225.324 541.592 227.054 541.306 229.728 541.297C247.839 541.283 266.153 541.312 284.253 541.308L302.08 541.284C304.456 541.28 309.229 541.133 311.36 541.389C313.002 541.573 314.533 542.308 315.703 543.473C317.125 544.88 317.924 546.797 317.922 548.797C317.93 550.839 317.123 552.799 315.682 554.245C313.104 556.785 310.537 556.367 307.226 556.319L307.233 586.214L369.102 586.222C374.806 586.259 380.51 586.254 386.216 586.208C389.735 586.204 393.419 586.294 396.855 586.189C419.565 585.494 424.343 616.838 415.171 632.364C414.088 634.199 412.937 635.859 411.658 637.509C413.25 637.482 416.021 637.249 417.21 638.468C418.825 640.124 420.373 642.58 421.68 644.513L427.787 653.546C430.265 657.194 432.987 660.844 435.24 664.634C435.588 665.22 435.723 666.065 435.73 666.745C435.749 668.202 435.174 669.603 434.136 670.626C432.425 672.3 425.862 671.829 423.332 671.825L407.903 671.797C407.911 669.992 407.896 668.146 407.926 666.346C404.804 666.375 401.681 666.378 398.559 666.353C397.692 676.151 388.427 683.453 378.731 682.642C373.714 682.207 369.076 679.799 365.833 675.944C363.769 673.5 362.728 671.259 361.888 668.234C356.008 668.371 349.715 668.278 343.818 668.258C343.464 669.619 342.975 670.941 342.36 672.206C340.141 676.719 336.206 680.155 331.433 681.743C326.729 683.322 321.585 682.922 317.18 680.638C311.794 677.883 309.075 673.784 307.247 668.242C304.748 668.306 283.322 668.094 282.642 668.376C279.594 673.836 275.376 677.879 269.606 680.389C263.143 683.269 255.792 683.422 249.213 680.817C242.3 678.089 237.114 673.135 234.146 666.341C230.03 666.386 224.368 667.083 221.227 664.022C216.89 659.795 218.916 651.764 218.537 646.293C218.409 644.41 219.662 641.3 221.038 640.009C223.938 637.013 228.124 637.463 231.937 637.476L231.995 556.319Z" fill="#FF66B6"/>
<path d="M239.282 637.517C251 626.249 266.863 626.016 278.545 637.486L363.146 637.523L395.22 637.513C400.464 637.513 406.482 637.656 411.658 637.504C413.25 637.477 416.021 637.244 417.21 638.464C418.825 640.119 420.373 642.576 421.68 644.508L427.787 653.542C430.265 657.189 432.987 660.839 435.24 664.629C435.588 665.216 435.723 666.06 435.73 666.74C435.749 668.197 435.174 669.598 434.136 670.621C432.425 672.296 425.862 671.824 423.332 671.82L407.903 671.792C407.911 669.987 407.896 668.142 407.926 666.341C404.804 666.371 401.681 666.373 398.559 666.348C397.692 676.146 388.427 683.448 378.731 682.638C373.714 682.202 369.076 679.794 365.833 675.94C363.769 673.496 362.728 671.255 361.888 668.23C356.008 668.366 349.715 668.273 343.818 668.254C343.464 669.614 342.975 670.936 342.36 672.201C340.141 676.714 336.206 680.15 331.433 681.738C326.729 683.317 321.585 682.918 317.18 680.633C311.794 677.878 309.075 673.78 307.247 668.237C304.748 668.301 283.322 668.09 282.642 668.371C279.594 673.831 275.376 677.875 269.606 680.385C263.143 683.264 255.792 683.418 249.213 680.813C242.3 678.085 237.114 673.13 234.146 666.336C230.03 666.382 224.368 667.078 221.227 664.017C216.89 659.79 218.916 651.76 218.537 646.289C218.409 644.405 219.662 641.295 221.038 640.005C223.938 637.008 228.124 637.458 231.937 637.471C234.385 637.54 236.832 637.555 239.282 637.517Z" fill="#5B5B5B"/>
<path d="M282.633 668.38C281.901 668.13 278.531 668.18 277.564 668.177C273.567 668.157 269.571 668.168 265.574 668.209C262.916 668.235 259.797 668.422 257.195 668.069C250.206 667.123 245.494 660.834 246.7 653.82C247.3 650.445 249.231 647.454 252.059 645.519C259.975 640.099 270.945 645.861 271.191 655.394C271.229 656.845 271 657.873 270.707 659.276C276.121 659.504 283.012 659.308 288.525 659.305L319.102 659.282C319.293 659.055 319.496 658.835 319.706 658.623C323.648 654.662 328.418 655.493 332.089 659.28C337.09 659.397 342.389 659.304 347.427 659.306L373.658 659.29C375.583 657.035 378.241 655.656 381.255 656.093C383.337 656.41 385.202 657.557 386.427 659.272C387.729 661.036 388.256 663.255 387.886 665.416C386.633 672.823 377.618 674.657 373.204 668.164C369.429 668.167 365.654 668.192 361.879 668.238C355.999 668.375 349.706 668.281 343.809 668.262C343.455 669.622 342.967 670.944 342.351 672.209C340.133 676.722 336.197 680.158 331.424 681.747C326.72 683.326 321.576 682.926 317.171 680.641C311.785 677.887 309.067 673.788 307.238 668.245C304.739 668.309 283.313 668.098 282.633 668.38Z" fill="#FF66B6"/>
<path d="M307.246 668.245C310.896 668.081 314.989 668.19 318.677 668.22C322.516 673.617 328.64 673.483 332.51 668.192C336.014 668.19 340.383 668.073 343.817 668.261C343.463 669.622 342.975 670.944 342.36 672.209C340.141 676.722 336.205 680.158 331.432 681.746C326.728 683.325 321.585 682.926 317.179 680.641C311.793 677.886 309.075 673.788 307.246 668.245Z" fill="#5B5B5B"/>
<path d="M229.936 541.825C238.796 542.224 310.049 541.253 311.984 542.179C313.177 542.749 314.286 543.444 315.238 544.369C316.391 545.488 317.311 546.884 317.307 548.542C317.304 549.627 316.898 550.842 316.482 551.833C314.036 557.631 309.031 554.143 306.782 556.392C306.191 558.953 306.558 563.3 306.577 566.047C306.655 572.635 306.267 579.495 306.778 586.032C306.891 587.481 320.213 586.974 322.103 586.971L345.414 586.973C351.467 586.971 357.54 586.935 363.592 586.914C366.53 586.95 369.614 587.664 372.543 587.549C381.84 587.184 391.341 586.649 400.629 587.061C402.613 587.453 406.863 589.03 408.465 590.123C417.232 596.103 419.939 609.663 418.657 619.551C418.208 623.008 416.739 628.187 415.162 631.021C415.075 631.825 412.219 635.573 411.577 636.439C408.936 636.847 406.274 636.706 403.592 636.699L393.111 636.687L353.693 636.695L299.889 636.723C295.557 636.686 291.226 636.682 286.895 636.709C282.213 636.767 279.602 637.808 276.147 634.363C274.972 633.191 271.842 631.477 270.284 630.741C260.296 626.028 246.673 628.397 239.222 636.625C237.797 636.708 233.743 636.754 232.394 636.485C232.644 636.074 232.521 624.495 232.521 623.258L232.539 573.163C232.541 569.503 232.551 565.841 232.5 562.177C232.479 560.606 233.499 555.266 230.707 555.548C226.62 555.96 222.769 554.551 222.018 550.101C221.692 548.273 222.142 546.392 223.259 544.909C225.245 542.251 227.14 542.239 229.936 541.825Z" fill="#FF66B6"/>
<path d="M264.185 555.64L272.005 555.609C277.736 555.605 281.524 555.329 286.336 559.209C292.846 564.458 293.307 569.855 293.113 577.728C293.134 582.795 293.149 587.961 292.746 592.999C292.477 596.381 293.473 597.853 290.815 600.646C288.295 603.294 281.49 602.186 278.19 602.443L277.997 602.459C274.945 602.237 271.651 602.433 268.577 602.4C263.594 602.45 258.63 602.181 253.642 602.358C249.873 602.492 247.382 600.682 246.473 596.914C245.986 594.896 246.255 591.251 246.261 589.044L246.257 575.234C246.232 569.547 246.638 565.304 250.942 561.154C254.958 557.281 258.714 555.641 264.185 555.64Z" fill="#FF66B6"/>
<path d="M262.042 556.371L262.26 556.363C264.99 556.287 267.892 556.356 270.623 556.325C277.018 556.217 282.033 555.943 287.133 560.721C295.58 568.636 291.387 582.738 292.396 593.114C292.614 595.342 292.248 598.435 290.518 599.973C287.822 602.367 281.367 601.567 277.777 601.54L260.919 601.56C258.085 601.565 255.062 601.651 252.247 601.45C251.092 601.315 250.202 601.069 249.277 600.369C246.59 598.355 246.912 594.938 246.948 591.937C247.005 587.318 246.95 582.679 246.958 578.059C246.961 575.31 246.785 572.159 247.329 569.48C247.855 566.899 248.996 564.483 250.657 562.437C253.616 558.761 257.406 556.88 262.042 556.371Z" fill="#DCDDDF"/>
<path d="M369.059 568.421C367.541 568.425 366.432 568.057 365.337 566.939C364.417 565.998 363.919 564.724 363.959 563.408C363.995 562.031 364.597 560.729 365.623 559.809C366.03 559.437 366.884 558.881 367.416 558.834C373.735 558.276 380.239 558.661 386.591 558.632C387.978 558.626 389.25 559.316 390.14 560.349C391.013 561.362 391.441 562.684 391.325 564.017C391.083 566.754 388.875 568.445 386.204 568.435L386.21 586.217C380.504 586.264 374.801 586.269 369.097 586.231L369.059 568.421Z" fill="#5B5B5B"/>
<path d="M369.059 568.421C367.541 568.425 366.432 568.057 365.337 566.939C364.417 565.998 363.919 564.724 363.959 563.408C363.995 562.031 364.597 560.729 365.623 559.809C366.03 559.437 366.884 558.881 367.416 558.834C373.735 558.276 380.239 558.661 386.591 558.632C387.978 558.626 389.25 559.316 390.14 560.349C391.013 561.362 391.441 562.684 391.325 564.017C391.083 566.754 388.875 568.445 386.204 568.435C380.671 568.424 374.547 568.27 369.059 568.421Z" fill="#FF66B6"/>
<g opacity="0.5" filter="url(#filter0_f_2545_935)">
<path d="M293.2 417.397C301.29 419.919 307.162 427.467 307.162 436.387C307.162 447.371 298.258 456.276 287.274 456.276C285.241 456.276 283.28 455.969 281.433 455.402C283.304 455.985 285.293 456.299 287.356 456.299C298.34 456.299 307.244 447.395 307.244 436.411C307.244 427.461 301.332 419.894 293.2 417.397Z" fill="#407AB9"/>
<path d="M307.164 436.388C307.164 427.468 301.291 419.92 293.202 417.398C291.353 416.83 289.391 416.523 287.357 416.523C276.373 416.523 267.469 425.428 267.469 436.412C267.469 445.333 273.343 452.882 281.434 455.403C283.281 455.97 285.242 456.276 287.275 456.276C298.259 456.276 307.164 447.372 307.164 436.388ZM297.882 437.41C297.431 437.41 297.066 437.688 296.931 437.808C296.631 438.072 296.165 438 295.958 437.658L295.778 437.361C295.618 437.098 295.668 436.758 295.897 436.551C296.487 436.02 297.204 435.739 297.972 435.739C299.735 435.739 300.376 437.101 300.376 438.017C300.376 439.263 299.612 440.171 298.395 441.321H300.014C300.308 441.321 300.547 441.559 300.547 441.853V442.442C300.547 442.736 300.308 442.974 300.014 442.974H296.323C295.861 442.974 295.487 442.6 295.487 442.138C295.487 441.904 295.585 441.681 295.756 441.523L296.269 441.051C298.107 439.348 298.642 438.759 298.642 438.134C298.642 437.606 298.436 437.41 297.882 437.41L297.882 437.41ZM281.918 440.247C281.243 440.584 280.198 440.786 279.122 440.786C276.736 440.786 274.168 439.271 274.168 435.944C274.168 433.505 275.974 431.035 279.425 431.035C280.382 431.035 281.231 431.2 281.881 431.511C282.336 431.729 282.546 432.261 282.362 432.73L282.183 433.19C281.976 433.717 281.361 433.954 280.855 433.7C280.585 433.565 280.076 433.421 279.459 433.421C277.684 433.421 276.667 434.357 276.667 435.989C276.667 437.492 277.66 438.389 279.324 438.389C279.917 438.389 280.516 438.273 280.889 438.087C281.398 437.833 282.014 438.072 282.218 438.602L282.386 439.04C282.564 439.503 282.361 440.025 281.918 440.247ZM284.032 436.011C284.032 433.174 286.094 431.035 288.829 431.035C291.563 431.035 293.547 433.043 293.547 435.81C293.547 439.077 291.134 440.786 288.751 440.786C286.061 440.786 284.032 438.733 284.032 436.011Z" fill="#407AB9"/>
<path d="M291.049 435.854C291.049 435.008 290.58 433.409 288.806 433.409C287.128 433.409 286.529 434.742 286.529 435.989C286.529 437.192 287.3 438.411 288.772 438.411C290.155 438.411 291.049 437.407 291.049 435.854Z" fill="#407AB9"/>
<path d="M282.217 438.602C282.014 438.071 281.397 437.832 280.888 438.086C280.515 438.272 279.916 438.388 279.323 438.388C277.659 438.388 276.666 437.491 276.666 435.988C276.666 434.356 277.684 433.42 279.458 433.42C280.075 433.42 280.584 433.564 280.854 433.699C281.36 433.953 281.976 433.716 282.182 433.189L282.361 432.729C282.545 432.259 282.335 431.728 281.88 431.51C281.231 431.199 280.381 431.034 279.424 431.034C275.973 431.034 274.167 433.504 274.167 435.943C274.167 439.27 276.735 440.785 279.121 440.785C280.197 440.785 281.242 440.583 281.917 440.246C282.36 440.024 282.563 439.502 282.385 439.039L282.217 438.601L282.217 438.602Z" fill="#85CCF2"/>
<path d="M293.547 435.81C293.547 433.043 291.563 431.035 288.829 431.035C286.094 431.035 284.032 433.174 284.032 436.011C284.032 438.733 286.061 440.786 288.751 440.786C291.134 440.786 293.547 439.077 293.547 435.81ZM286.53 435.989C286.53 434.742 287.128 433.409 288.807 433.409C290.581 433.409 291.05 435.009 291.05 435.854C291.05 437.407 290.156 438.411 288.773 438.411C287.3 438.411 286.53 437.193 286.53 435.989Z" fill="#85CCF2"/>
<path d="M296.269 441.051L295.756 441.523C295.585 441.681 295.487 441.904 295.487 442.138C295.487 442.6 295.861 442.974 296.323 442.974H300.014C300.308 442.974 300.547 442.736 300.547 442.442V441.853C300.547 441.559 300.308 441.321 300.014 441.321H298.395C299.612 440.171 300.376 439.263 300.376 438.017C300.376 437.101 299.735 435.739 297.972 435.739C297.204 435.739 296.487 436.02 295.897 436.551C295.668 436.758 295.618 437.098 295.778 437.361L295.958 437.658C296.165 438 296.631 438.072 296.931 437.808C297.066 437.688 297.431 437.41 297.882 437.41C298.436 437.41 298.643 437.606 298.643 438.134C298.643 438.759 298.108 439.349 296.27 441.051L296.269 441.051Z" fill="#85CCF2"/>
</g>
<g opacity="0.3" filter="url(#filter1_f_2545_935)">
<path d="M280.116 386.108C288.206 388.63 294.078 396.178 294.078 405.098C294.078 416.082 285.174 424.987 274.19 424.987C272.157 424.987 270.196 424.68 268.349 424.113C270.22 424.696 272.209 425.01 274.272 425.01C285.256 425.01 294.16 416.106 294.16 405.122C294.16 396.172 288.248 388.604 280.116 386.108Z" fill="#407AB9"/>
<path d="M294.08 405.099C294.08 396.179 288.207 388.631 280.118 386.109C278.269 385.541 276.307 385.234 274.273 385.234C263.289 385.234 254.385 394.139 254.385 405.123C254.385 414.044 260.259 421.593 268.35 424.114C270.197 424.681 272.158 424.987 274.191 424.987C285.175 424.987 294.08 416.083 294.08 405.099ZM284.798 406.121C284.347 406.121 283.982 406.399 283.847 406.519C283.547 406.782 283.081 406.711 282.874 406.369L282.694 406.072C282.534 405.809 282.584 405.469 282.813 405.262C283.403 404.731 284.12 404.45 284.888 404.45C286.651 404.45 287.292 405.812 287.292 406.728C287.292 407.974 286.528 408.882 285.311 410.032H286.93C287.225 410.032 287.463 410.27 287.463 410.564V411.153C287.463 411.447 287.225 411.685 286.93 411.685H283.239C282.777 411.685 282.403 411.31 282.403 410.849C282.403 410.615 282.501 410.392 282.672 410.234L283.185 409.762C285.023 408.059 285.558 407.47 285.558 406.845C285.558 406.317 285.352 406.121 284.798 406.121L284.798 406.121ZM268.834 408.958C268.159 409.295 267.114 409.497 266.038 409.497C263.652 409.497 261.084 407.982 261.084 404.655C261.084 402.216 262.89 399.746 266.341 399.746C267.298 399.746 268.148 399.911 268.797 400.222C269.252 400.44 269.462 400.972 269.278 401.441L269.099 401.901C268.892 402.428 268.277 402.665 267.771 402.411C267.501 402.276 266.992 402.132 266.375 402.132C264.6 402.132 263.583 403.068 263.583 404.7C263.583 406.203 264.576 407.1 266.24 407.1C266.833 407.1 267.432 406.984 267.805 406.798C268.314 406.544 268.93 406.783 269.134 407.313L269.302 407.751C269.48 408.214 269.277 408.736 268.834 408.958ZM270.948 404.722C270.948 401.885 273.01 399.746 275.745 399.746C278.479 399.746 280.463 401.754 280.463 404.521C280.463 407.788 278.05 409.497 275.667 409.497C272.977 409.497 270.948 407.444 270.948 404.722Z" fill="#407AB9"/>
<path d="M277.965 404.565C277.965 403.719 277.496 402.12 275.722 402.12C274.044 402.12 273.445 403.453 273.445 404.699C273.445 405.903 274.216 407.122 275.688 407.122C277.071 407.122 277.965 406.118 277.965 404.565Z" fill="#407AB9"/>
<path d="M269.133 407.313C268.93 406.782 268.313 406.543 267.804 406.797C267.432 406.983 266.832 407.098 266.239 407.098C264.575 407.098 263.582 406.202 263.582 404.699C263.582 403.067 264.6 402.131 266.374 402.131C266.991 402.131 267.5 402.275 267.77 402.41C268.276 402.664 268.892 402.427 269.098 401.9L269.277 401.44C269.461 400.97 269.251 400.439 268.796 400.221C268.147 399.91 267.297 399.745 266.34 399.745C262.889 399.745 261.083 402.215 261.083 404.654C261.083 407.981 263.651 409.496 266.037 409.496C267.113 409.496 268.158 409.294 268.833 408.957C269.276 408.735 269.479 408.213 269.301 407.75L269.133 407.312L269.133 407.313Z" fill="#85CCF2"/>
<path d="M280.463 404.521C280.463 401.754 278.479 399.746 275.745 399.746C273.01 399.746 270.948 401.885 270.948 404.722C270.948 407.444 272.977 409.497 275.667 409.497C278.05 409.497 280.463 407.788 280.463 404.521ZM273.446 404.7C273.446 403.453 274.044 402.12 275.723 402.12C277.497 402.12 277.966 403.72 277.966 404.565C277.966 406.118 277.072 407.122 275.689 407.122C274.216 407.122 273.446 405.904 273.446 404.7Z" fill="#85CCF2"/>
<path d="M283.185 409.762L282.672 410.234C282.501 410.392 282.403 410.615 282.403 410.849C282.403 411.31 282.777 411.685 283.239 411.685H286.93C287.225 411.685 287.463 411.447 287.463 411.153V410.564C287.463 410.27 287.225 410.032 286.93 410.032H285.311C286.528 408.882 287.292 407.974 287.292 406.728C287.292 405.812 286.651 404.45 284.888 404.45C284.12 404.45 283.403 404.731 282.813 405.262C282.584 405.469 282.534 405.809 282.694 406.072L282.874 406.369C283.081 406.711 283.547 406.782 283.847 406.519C283.982 406.399 284.347 406.121 284.798 406.121C285.352 406.121 285.559 406.317 285.559 406.845C285.559 407.47 285.024 408.06 283.186 409.762L283.185 409.762Z" fill="#85CCF2"/>
</g>
<g opacity="0.7" filter="url(#filter2_f_2545_935)">
<path d="M324.574 464.055C334.704 467.213 342.058 476.665 342.058 487.835C342.058 501.59 330.908 512.741 317.153 512.741C314.607 512.741 312.151 512.357 309.838 511.647C312.181 512.377 314.672 512.771 317.255 512.771C331.01 512.771 342.16 501.62 342.16 487.865C342.16 476.658 334.756 467.181 324.574 464.055Z" fill="#407AB9"/>
<path d="M342.06 487.836C342.06 476.666 334.706 467.214 324.576 464.056C322.261 463.345 319.804 462.961 317.257 462.961C303.502 462.961 292.352 474.111 292.352 487.866C292.352 499.038 299.707 508.491 309.84 511.648C312.153 512.358 314.608 512.741 317.154 512.741C330.909 512.741 342.06 501.591 342.06 487.836ZM330.437 489.116C329.872 489.116 329.415 489.464 329.245 489.614C328.869 489.945 328.286 489.855 328.027 489.427L327.802 489.055C327.602 488.725 327.664 488.299 327.951 488.041C328.69 487.376 329.588 487.024 330.549 487.024C332.757 487.024 333.559 488.73 333.559 489.877C333.559 491.437 332.603 492.574 331.079 494.014H333.107C333.475 494.014 333.773 494.312 333.773 494.68V495.417C333.773 495.785 333.475 496.083 333.107 496.083H328.484C327.906 496.083 327.437 495.615 327.437 495.037C327.437 494.744 327.56 494.465 327.775 494.267L328.417 493.675C330.719 491.544 331.388 490.805 331.388 490.022C331.388 489.361 331.13 489.116 330.436 489.116L330.437 489.116ZM310.445 492.669C309.6 493.091 308.292 493.343 306.945 493.343C303.956 493.343 300.741 491.446 300.741 487.281C300.741 484.226 303.002 481.133 307.323 481.133C308.523 481.133 309.586 481.34 310.4 481.729C310.969 482.002 311.232 482.668 311.002 483.255L310.777 483.831C310.519 484.492 309.749 484.788 309.114 484.471C308.776 484.301 308.139 484.121 307.366 484.121C305.144 484.121 303.87 485.293 303.87 487.337C303.87 489.218 305.114 490.342 307.198 490.342C307.94 490.342 308.69 490.197 309.157 489.964C309.794 489.645 310.566 489.945 310.822 490.609L311.032 491.158C311.255 491.738 311.001 492.391 310.445 492.669ZM313.093 487.365C313.093 483.812 315.675 481.133 319.1 481.133C322.524 481.133 325.008 483.648 325.008 487.112C325.008 491.203 321.987 493.343 319.002 493.343C315.634 493.343 313.093 490.773 313.093 487.365Z" fill="#407AB9"/>
<path d="M321.88 487.167C321.88 486.108 321.293 484.106 319.071 484.106C316.969 484.106 316.22 485.775 316.22 487.336C316.22 488.843 317.185 490.369 319.029 490.369C320.76 490.369 321.88 489.112 321.88 487.167Z" fill="#407AB9"/>
<path d="M310.821 490.609C310.566 489.944 309.793 489.644 309.156 489.962C308.689 490.196 307.938 490.34 307.197 490.34C305.113 490.34 303.869 489.217 303.869 487.336C303.869 485.292 305.143 484.12 307.365 484.12C308.138 484.12 308.775 484.3 309.113 484.469C309.747 484.787 310.518 484.491 310.776 483.83L311.001 483.254C311.23 482.666 310.968 482.001 310.399 481.728C309.585 481.338 308.521 481.132 307.322 481.132C303.002 481.132 300.74 484.225 300.74 487.279C300.74 491.445 303.955 493.342 306.943 493.342C308.291 493.342 309.6 493.09 310.444 492.667C310.999 492.39 311.253 491.736 311.031 491.157L310.82 490.608L310.821 490.609Z" fill="#85CCF2"/>
<path d="M325.008 487.112C325.008 483.648 322.524 481.133 319.1 481.133C315.675 481.133 313.093 483.812 313.093 487.365C313.093 490.773 315.634 493.343 319.002 493.343C321.987 493.343 325.008 491.203 325.008 487.112ZM316.221 487.337C316.221 485.775 316.97 484.107 319.072 484.107C321.294 484.107 321.881 486.109 321.881 487.168C321.881 489.113 320.762 490.369 319.03 490.369C317.186 490.369 316.221 488.844 316.221 487.337Z" fill="#85CCF2"/>
<path d="M328.417 493.675L327.775 494.267C327.56 494.465 327.437 494.744 327.437 495.037C327.437 495.615 327.906 496.083 328.484 496.083H333.107C333.475 496.083 333.773 495.785 333.773 495.417V494.68C333.773 494.312 333.475 494.014 333.107 494.014H331.079C332.603 492.574 333.559 491.437 333.559 489.877C333.559 488.73 332.757 487.024 330.549 487.024C329.588 487.024 328.69 487.376 327.951 488.041C327.664 488.299 327.602 488.725 327.802 489.055L328.027 489.427C328.286 489.855 328.869 489.945 329.245 489.614C329.415 489.464 329.872 489.116 330.437 489.116C331.131 489.116 331.389 489.362 331.389 490.023C331.389 490.806 330.719 491.544 328.418 493.676L328.417 493.675Z" fill="#85CCF2"/>
</g>
<rect x="99.0664" y="711.133" width="453.286" height="52.9355" rx="26.4677" fill="white" stroke="#D3B897" stroke-width="2.42264"/>
<path d="M369.438 485.053C381.23 488.729 389.791 499.733 389.791 512.736C389.791 528.748 376.811 541.728 360.799 541.728C357.835 541.728 354.977 541.281 352.284 540.455C355.011 541.304 357.911 541.763 360.918 541.763C376.93 541.763 389.91 528.782 389.91 512.771C389.91 499.724 381.291 488.692 369.438 485.053Z" fill="#407AB9"/>
<path d="M389.793 512.737C389.793 499.734 381.232 488.73 369.44 485.054C366.745 484.227 363.885 483.779 360.92 483.779C344.908 483.779 331.928 496.76 331.928 512.771C331.928 525.776 340.49 536.781 352.286 540.455C354.979 541.282 357.837 541.729 360.801 541.729C376.813 541.729 389.793 528.749 389.793 512.737ZM376.263 514.227C375.605 514.227 375.074 514.632 374.876 514.806C374.438 515.191 373.759 515.087 373.457 514.588L373.195 514.155C372.963 513.771 373.035 513.276 373.369 512.975C374.229 512.2 375.275 511.791 376.394 511.791C378.964 511.791 379.898 513.777 379.898 515.112C379.898 516.928 378.785 518.252 377.01 519.928H379.371C379.8 519.928 380.147 520.275 380.147 520.704V521.561C380.147 521.99 379.8 522.337 379.371 522.337H373.99C373.316 522.337 372.771 521.792 372.771 521.119C372.771 520.778 372.914 520.453 373.164 520.223L373.912 519.534C376.591 517.052 377.371 516.193 377.371 515.282C377.371 514.512 377.07 514.226 376.262 514.226L376.263 514.227ZM352.991 518.362C352.007 518.854 350.484 519.148 348.915 519.148C345.437 519.148 341.694 516.939 341.694 512.09C341.694 508.534 344.326 504.934 349.357 504.934C350.752 504.934 351.99 505.174 352.938 505.628C353.6 505.945 353.906 506.72 353.639 507.404L353.377 508.074C353.076 508.844 352.18 509.189 351.441 508.819C351.048 508.622 350.306 508.412 349.406 508.412C346.82 508.412 345.336 509.776 345.336 512.155C345.336 514.346 346.784 515.653 349.21 515.653C350.074 515.653 350.948 515.484 351.491 515.213C352.233 514.843 353.131 515.191 353.429 515.965L353.674 516.603C353.933 517.278 353.638 518.039 352.991 518.362ZM356.073 512.188C356.073 508.052 359.079 504.934 363.065 504.934C367.051 504.934 369.943 507.861 369.943 511.894C369.943 516.656 366.426 519.148 362.952 519.148C359.03 519.148 356.073 516.155 356.073 512.188Z" fill="#407AB9"/>
<path d="M366.301 511.958C366.301 510.725 365.618 508.394 363.032 508.394C360.585 508.394 359.713 510.337 359.713 512.154C359.713 513.909 360.836 515.685 362.983 515.685C364.999 515.685 366.301 514.222 366.301 511.958Z" fill="#407AB9"/>
<path d="M353.428 515.964C353.131 515.191 352.231 514.841 351.49 515.212C350.947 515.483 350.072 515.652 349.209 515.652C346.783 515.652 345.335 514.344 345.335 512.154C345.335 509.775 346.818 508.41 349.405 508.41C350.305 508.41 351.046 508.621 351.44 508.817C352.178 509.187 353.075 508.842 353.376 508.073L353.637 507.403C353.905 506.718 353.599 505.944 352.936 505.626C351.99 505.172 350.751 504.932 349.355 504.932C344.325 504.932 341.693 508.532 341.693 512.088C341.693 516.937 345.436 519.146 348.914 519.146C350.483 519.146 352.006 518.853 352.989 518.361C353.636 518.037 353.931 517.276 353.672 516.602L353.427 515.963L353.428 515.964Z" fill="#85CCF2"/>
<path d="M369.943 511.894C369.943 507.861 367.051 504.934 363.065 504.934C359.079 504.934 356.073 508.052 356.073 512.188C356.073 516.155 359.03 519.148 362.952 519.148C366.426 519.148 369.943 516.656 369.943 511.894ZM359.715 512.155C359.715 510.337 360.586 508.395 363.033 508.395C365.619 508.395 366.303 510.726 366.303 511.958C366.303 514.223 365 515.685 362.984 515.685C360.837 515.685 359.715 513.91 359.715 512.155Z" fill="#85CCF2"/>
<path d="M373.912 519.534L373.164 520.223C372.914 520.453 372.771 520.778 372.771 521.119C372.771 521.792 373.316 522.337 373.99 522.337H379.371C379.8 522.337 380.147 521.99 380.147 521.561V520.704C380.147 520.275 379.8 519.928 379.371 519.928H377.01C378.785 518.252 379.898 516.928 379.898 515.112C379.898 513.777 378.964 511.791 376.394 511.791C375.275 511.791 374.229 512.2 373.369 512.975C373.035 513.276 372.963 513.771 373.195 514.155L373.457 514.588C373.759 515.087 374.438 515.191 374.876 514.806C375.074 514.632 375.605 514.227 376.263 514.227C377.071 514.227 377.371 514.513 377.371 515.282C377.371 516.194 376.592 517.053 373.912 519.535L373.912 519.534Z" fill="#85CCF2"/>
<path d="M236.632 143.314V146.181H225.39V151.528H221.75V146.181H210.025V143.314H236.632ZM233.7 154.524V157.455H213.278V148.822H216.886V154.524H233.7ZM223.296 129.56C229.577 129.56 233.733 131.847 233.733 135.519C233.733 139.191 229.577 141.446 223.296 141.446C217.015 141.446 212.86 139.191 212.86 135.519C212.86 131.847 217.015 129.56 223.296 129.56ZM223.296 132.395C219.302 132.395 216.693 133.522 216.725 135.519C216.693 137.452 219.302 138.579 223.296 138.579C227.323 138.579 229.899 137.452 229.899 135.519C229.899 133.522 227.323 132.395 223.296 132.395ZM253.575 139.191V142.992H265.107V145.859H238.564V142.992H250.032V139.191H253.575ZM253.607 130.494C253.607 134.037 257.505 137.258 263.593 138.032L262.207 140.834C257.424 140.093 253.623 137.935 251.771 134.875C249.903 137.935 246.102 140.093 241.302 140.834L240.014 138.032C246.005 137.258 249.967 133.973 249.967 130.494V129.399H253.607V130.494ZM251.803 147.759C258.117 147.759 261.853 149.595 261.885 152.881C261.853 156.167 258.117 158.003 251.803 158.003C245.458 158.003 241.657 156.167 241.657 152.881C241.657 149.595 245.458 147.759 251.803 147.759ZM251.803 150.497C247.519 150.497 245.264 151.27 245.296 152.881C245.264 154.492 247.519 155.297 251.803 155.297C255.991 155.297 258.278 154.492 258.31 152.881C258.278 151.27 255.991 150.497 251.803 150.497ZM280.568 146.89C286.592 146.89 290.296 148.919 290.328 152.43C290.296 155.973 286.592 158.035 280.568 158.035C274.48 158.035 270.711 155.973 270.711 152.43C270.711 148.919 274.48 146.89 280.568 146.89ZM280.568 149.692C276.574 149.692 274.287 150.626 274.287 152.43C274.287 154.234 276.574 155.2 280.568 155.2C284.562 155.2 286.785 154.234 286.785 152.43C286.785 150.626 284.562 149.692 280.568 149.692ZM290.038 128.916V135.873H294.097V138.869H290.038V146.181H286.463V128.916H290.038ZM271.613 130.752V134.682H278.41V130.752H281.953V144.345H268.07V130.752H271.613ZM271.613 141.51H278.41V137.484H271.613V141.51ZM306.434 133.071C306.434 136.904 308.817 140.512 313.456 141.961L311.684 144.796C308.318 143.669 305.918 141.462 304.63 138.611C303.293 141.671 300.861 144.103 297.415 145.279L295.611 142.477C300.314 140.866 302.729 137.033 302.729 133.071V130.301H306.434V133.071ZM319.834 147.663V158.035H316.226V150.53H299.959V147.663H319.834ZM319.834 128.916V146.342H316.226V128.916H319.834ZM349.21 128.916V158.035H345.764V128.916H349.21ZM343.219 129.431V156.618H339.805V142.767H337.035C336.696 148.436 334.264 151.947 330.657 151.915C326.856 151.947 324.375 147.92 324.375 141.51C324.375 135.1 326.856 131.138 330.657 131.138C334.184 131.138 336.584 134.424 337.002 139.868H339.805V129.431H343.219ZM330.657 134.52C328.821 134.488 327.661 136.969 327.693 141.51C327.661 146.052 328.821 148.532 330.657 148.5C332.589 148.532 333.749 146.052 333.749 141.51C333.749 136.969 332.589 134.488 330.657 134.52ZM383.387 128.916V134.778H387.445V137.742H383.387V143.54H379.811V128.916H383.387ZM383.387 144.796V152.43H367.925V154.846H384.289V157.68H364.382V149.821H379.811V147.566H364.35V144.796H383.387ZM368.473 129.882C372.918 129.882 376.171 132.556 376.204 136.421C376.171 140.222 372.918 142.928 368.473 142.928C364.028 142.928 360.71 140.222 360.742 136.421C360.71 132.556 364.028 129.882 368.473 129.882ZM368.473 132.781C366.025 132.781 364.221 134.198 364.253 136.421C364.221 138.611 366.025 140.093 368.473 140.093C370.921 140.093 372.725 138.611 372.725 136.421C372.725 134.198 370.921 132.781 368.473 132.781ZM403.712 130.848V143.507H389.926V130.848H403.712ZM393.437 133.715V140.641H400.201V133.715H393.437ZM411.894 128.916V135.455H415.952V138.418H411.894V145.344H408.318V128.916H411.894ZM412.313 146.825V149.66H404.582C405.146 152.14 408.447 154.475 413.537 155.2L412.248 157.938C407.706 157.294 404.244 155.345 402.585 152.72C400.894 155.345 397.495 157.278 392.954 157.874L391.633 155.168C396.771 154.475 399.992 152.205 400.588 149.66H392.825V146.825H412.313ZM443.976 143.958V146.825H417.434V143.958H443.976ZM440.981 154.556V157.455H420.72V148.983H424.295V154.556H440.981ZM430.673 129.85C437.019 129.85 441.142 132.072 441.174 135.745C441.142 139.449 437.019 141.704 430.673 141.704C424.327 141.704 420.172 139.449 420.172 135.745C420.172 132.072 424.327 129.85 430.673 129.85ZM430.673 132.717C426.453 132.717 423.876 133.812 423.909 135.745C423.876 137.709 426.453 138.805 430.673 138.772C434.925 138.805 437.47 137.709 437.47 135.745C437.47 133.812 434.925 132.717 430.673 132.717ZM144.845 174.916V204.067H141.238V174.916H144.845ZM129.158 177.042C133.539 177.042 136.728 181.036 136.76 187.317C136.728 193.663 133.539 197.625 129.158 197.625C124.745 197.625 121.556 193.663 121.556 187.317C121.556 181.036 124.745 177.042 129.158 177.042ZM129.158 180.263C126.678 180.263 125.003 182.872 125.003 187.317C125.003 191.794 126.678 194.404 129.158 194.404C131.606 194.404 133.281 191.794 133.281 187.317C133.281 182.872 131.606 180.263 129.158 180.263ZM159.566 180.07C159.534 183.903 161.95 187.543 166.524 189.024L164.655 191.859C161.418 190.764 159.131 188.573 157.859 185.771C156.554 188.863 154.154 191.279 150.772 192.471L148.775 189.636C153.575 188.09 155.958 184.16 155.958 180.037V176.72H159.566V180.07ZM172.096 174.916V183.516H176.155V186.544H172.096V196.304H168.521V174.916H172.096ZM173.256 200.556V203.455H153.446V194.21H157.118V200.556H173.256ZM200.668 174.916V186.931H204.758V189.926H200.668V204.035H197.06V174.916H200.668ZM177.282 195.95C179.489 195.95 182.049 195.95 184.723 195.885V193.147C181.55 192.616 179.473 190.619 179.505 187.897C179.473 184.611 182.372 182.421 186.559 182.421C190.682 182.421 193.613 184.611 193.646 187.897C193.613 190.635 191.503 192.632 188.331 193.147V195.756C190.779 195.628 193.227 195.434 195.514 195.112L195.739 197.721C189.49 198.849 182.758 198.913 177.798 198.913L177.282 195.95ZM195.192 178.266V181.1H177.83V178.266H184.723V175.045H188.331V178.266H195.192ZM186.559 185.159C184.336 185.191 182.887 186.19 182.887 187.897C182.887 189.572 184.336 190.57 186.559 190.538C188.749 190.57 190.199 189.572 190.199 187.897C190.199 186.19 188.749 185.191 186.559 185.159ZM220.961 177.203V180.037H210.911V183.291H220.381V186.125H210.911V189.507C216 189.491 219.093 189.33 222.636 188.734L223.022 191.537C219.06 192.278 215.614 192.406 209.655 192.406H207.335V177.203H220.961ZM229.11 174.916V183.677H233.169V186.641H229.11V196.465H225.535V174.916H229.11ZM230.27 200.556V203.455H210.46V194.5H214.035V200.556H230.27ZM261.257 197.528V200.427H234.651V197.528H246.053V190.796H249.597V197.528H261.257ZM249.693 178.813C249.693 183.226 254.106 187.575 260.226 188.541L258.68 191.505C253.752 190.57 249.726 187.752 247.793 183.935C245.86 187.736 241.866 190.603 236.97 191.505L235.424 188.541C241.512 187.575 245.86 183.194 245.892 178.813V176.687H249.693V178.813ZM275.269 177.589V184.321H280.004V177.589H283.322V196.981H271.887V177.589H275.269ZM275.269 194.081H280.004V187.156H275.269V194.081ZM296.11 174.916V204.035H292.663V189.121H289.571V202.618H286.189V175.431H289.571V186.157H292.663V174.916H296.11ZM325.97 187.51V190.152H314.503V192.278H322.717V199.106H306.16V201.104H323.522V203.777H302.649V196.658H319.206V194.855H302.617V192.278H310.959V190.152H299.557V187.51H325.97ZM314.503 174.851V177.299H323.425V179.973H314.889C315.582 182.034 318.964 183.581 324.778 183.87L323.715 186.544C318.497 186.222 314.567 184.805 312.731 182.453C310.895 184.805 306.981 186.222 301.715 186.544L300.716 183.87C306.466 183.581 309.848 182.034 310.605 179.973H302.101V177.299H310.959V174.851H314.503ZM355.057 179.071V182.034H350.966V185.191H355.057V188.187H350.966V192.535H347.39V174.948H350.966V179.071H355.057ZM342.398 176.72V185.095H332.702V188.155C337.647 188.122 341.029 187.945 345.007 187.285L345.393 190.152C341.045 190.925 337.276 191.118 331.51 191.086H329.127V182.389H338.887V179.554H329.094V176.72H342.398ZM341.464 193.083C347.455 193.115 351.224 195.144 351.256 198.591C351.224 202.005 347.455 203.97 341.464 203.97C335.343 203.97 331.607 202.005 331.607 198.591C331.607 195.144 335.343 193.115 341.464 193.083ZM341.464 195.885C337.405 195.885 335.086 196.852 335.118 198.591C335.086 200.331 337.405 201.265 341.464 201.265C345.49 201.265 347.713 200.331 347.713 198.591C347.713 196.852 345.49 195.885 341.464 195.885ZM369.745 175.367C376.381 175.367 380.214 177.138 380.246 180.359C380.214 183.613 376.381 185.352 369.745 185.384C363.11 185.352 359.244 183.613 359.244 180.359C359.244 177.138 363.11 175.367 369.745 175.367ZM369.745 178.008C365.3 178.008 362.981 178.846 363.013 180.359C362.981 181.97 365.3 182.711 369.745 182.711C374.255 182.711 376.542 181.97 376.542 180.359C376.542 178.846 374.255 178.008 369.745 178.008ZM383.049 186.931V189.797H356.506V186.931H383.049ZM379.731 191.762V198.881H363.174V201.039H380.536V203.777H359.663V196.336H376.22V194.404H359.631V191.762H379.731ZM416.097 176.043V177.847C416.097 179.619 416.097 181.906 415.582 184.772L412.039 184.45C412.425 182.179 412.506 180.408 412.522 178.878H395.933V176.043H416.097ZM419.319 186.093V188.895H392.905V186.093H403.148V181.551H406.692V186.093H419.319ZM416.162 190.989V198.494H399.509V200.943H416.903V203.745H395.933V196.046H412.586V193.856H395.901V190.989H416.162ZM444.154 174.916V186.093H448.631V189.089H444.154V204.067H440.61V174.916H444.154ZM435.907 177.46V188.444H426.115V194.243C430.721 194.21 434.313 194.017 438.388 193.308L438.71 196.207C434.232 197.013 430.238 197.206 424.956 197.206H422.572V185.578H432.332V180.359H422.507V177.46H435.907ZM476.397 191.15V194.049H464.833V204.003H461.29V194.049H449.855V191.15H476.397ZM473.949 176.558V179.393H465.22C465.429 182.582 469.262 185.642 475.012 186.383L473.724 189.185C468.763 188.493 464.898 186.222 463.126 183.065C461.354 186.222 457.489 188.493 452.593 189.185L451.24 186.383C456.958 185.642 460.791 182.582 461.065 179.393H452.303V176.558H473.949ZM487.446 182.55C487.446 187.253 489.088 192.149 493.018 194.629L491.053 197.367C488.428 195.789 486.721 193.067 485.771 189.862C484.708 193.389 482.839 196.368 480.101 198.043L477.879 195.37C482.099 192.793 483.999 187.671 483.999 182.711V177.493H487.446V182.55ZM503.487 174.916V204.035H500.04V174.916H503.487ZM497.431 175.431V202.618H494.049V187.897H489.894V184.933H494.049V175.431H497.431ZM533.476 197.56V200.492H506.869V197.56H513.021V190.184C510.702 188.863 509.301 186.786 509.317 184.193C509.285 179.554 513.859 176.494 520.108 176.494C526.389 176.494 530.963 179.554 530.963 184.193C530.963 186.737 529.61 188.783 527.356 190.119V197.56H533.476ZM520.108 179.329C515.759 179.329 512.796 181.165 512.828 184.193C512.796 187.188 515.759 189.057 520.108 189.057C524.457 189.057 527.452 187.188 527.452 184.193C527.452 181.165 524.457 179.329 520.108 179.329ZM516.565 197.56H523.716V191.472C522.604 191.73 521.396 191.859 520.108 191.859C518.852 191.859 517.66 191.73 516.565 191.505V197.56Z" fill="black"/>
<path d="M131.401 730.594C131.401 732.883 133.53 735.119 137.31 735.917L136.005 738.153C133.158 737.527 131.082 736.077 129.964 734.16C128.886 736.276 126.796 737.873 123.869 738.579L122.591 736.316C126.371 735.411 128.447 733.069 128.447 730.594V730.354H123.416V727.985H128.447V725.723H131.428V727.985H136.431V730.354H131.401V730.594ZM142.899 725.83V738.366H139.945V733.947H135.766V731.579H139.945V725.83H142.899ZM142.899 739.324V745.525H130.017V747.388H143.671V749.677H127.063V743.343H139.945V741.613H127.036V739.324H142.899ZM165.842 736.769V739.111H158.709V744.62H168.291V747.042H146.306V744.62H155.781V739.111H148.967V727.613H165.656V729.982H151.922V736.769H165.842ZM191.819 737.727V740.096H182.53V744.514H179.523V740.096H169.834V737.727H191.819ZM189.397 746.989V749.411H172.523V742.278H175.504V746.989H189.397ZM180.8 726.362C185.99 726.362 189.424 728.252 189.424 731.286C189.424 734.32 185.99 736.183 180.8 736.183C175.61 736.183 172.177 734.32 172.177 731.286C172.177 728.252 175.61 726.362 180.8 726.362ZM180.8 728.704C177.5 728.704 175.344 729.636 175.37 731.286C175.344 732.883 177.5 733.814 180.8 733.814C184.127 733.814 186.256 732.883 186.256 731.286C186.256 729.636 184.127 728.704 180.8 728.704ZM205.819 734.32V737.461H215.348V739.83H193.416V737.461H202.891V734.32H205.819ZM205.846 727.134C205.846 730.061 209.066 732.723 214.097 733.362L212.952 735.677C209 735.065 205.859 733.282 204.329 730.753C202.785 733.282 199.644 735.065 195.678 735.677L194.614 733.362C199.564 732.723 202.838 730.008 202.838 727.134V726.229H205.846V727.134ZM204.355 741.4C209.572 741.4 212.659 742.917 212.686 745.632C212.659 748.347 209.572 749.864 204.355 749.864C199.112 749.864 195.971 748.347 195.971 745.632C195.971 742.917 199.112 741.4 204.355 741.4ZM204.355 743.662C200.815 743.662 198.952 744.301 198.979 745.632C198.952 746.963 200.815 747.628 204.355 747.628C207.815 747.628 209.705 746.963 209.732 745.632C209.705 744.301 207.815 743.662 204.355 743.662ZM224.77 727.506C228.576 727.48 231.37 729.902 231.397 733.309C231.37 736.742 228.576 739.138 224.77 739.138C220.99 739.138 218.169 736.742 218.169 733.309C218.169 729.902 220.99 727.48 224.77 727.506ZM224.77 730.061C222.667 730.061 221.097 731.312 221.097 733.309C221.097 735.331 222.667 736.556 224.77 736.556C226.899 736.556 228.496 735.331 228.496 733.309C228.496 731.312 226.899 730.061 224.77 730.061ZM237.013 725.83V749.917H234.058V725.83H237.013ZM217.078 742.464C221.416 742.464 227.431 742.411 232.621 741.666L232.861 743.822C227.458 744.86 221.682 744.887 217.45 744.887L217.078 742.464ZM259.237 727.719V730.061H250.933V732.75H258.758V735.092H250.933V737.887C255.138 737.873 257.693 737.74 260.621 737.248L260.941 739.563C257.667 740.176 254.819 740.282 249.895 740.282H247.979V727.719H259.237ZM265.971 725.83V733.069H269.325V735.518H265.971V743.636H263.017V725.83H265.971ZM266.929 747.016V749.411H250.56V742.012H253.515V747.016H266.929ZM292.534 744.514V746.909H270.549V744.514H279.971V738.951H282.899V744.514H292.534ZM282.979 729.05C282.979 732.696 286.625 736.29 291.682 737.088L290.404 739.537C286.332 738.765 283.005 736.436 281.408 733.282C279.811 736.423 276.511 738.791 272.465 739.537L271.188 737.088C276.218 736.29 279.811 732.67 279.838 729.05V727.293H282.979V729.05ZM304.112 728.039V733.601H308.024V728.039H310.766V744.061H301.317V728.039H304.112ZM304.112 741.666H308.024V735.944H304.112V741.666ZM321.332 725.83V749.89H318.484V737.567H315.929V748.719H313.134V726.255H315.929V735.119H318.484V725.83H321.332ZM346.005 736.236V738.419H336.53V740.176H343.317V745.818H329.636V747.468H343.982V749.677H326.735V743.795H340.416V742.305H326.708V740.176H333.602V738.419H324.18V736.236H346.005ZM336.53 725.776V727.799H343.902V730.008H336.849C337.421 731.712 340.216 732.989 345.02 733.229L344.142 735.438C339.83 735.172 336.583 734.001 335.066 732.058C333.549 734.001 330.315 735.172 325.963 735.438L325.138 733.229C329.889 732.989 332.684 731.712 333.309 730.008H326.283V727.799H333.602V725.776H336.53ZM370.039 729.263V731.712H366.659V734.32H370.039V736.795H366.659V740.388H363.705V725.856H366.659V729.263H370.039ZM359.579 727.32V734.24H351.568V736.769C355.653 736.742 358.448 736.596 361.735 736.05L362.054 738.419C358.461 739.058 355.347 739.217 350.583 739.191H348.613V732.004H356.678V729.662H348.587V727.32H359.579ZM358.807 740.841C363.758 740.868 366.872 742.544 366.898 745.392C366.872 748.214 363.758 749.837 358.807 749.837C353.75 749.837 350.663 748.214 350.663 745.392C350.663 742.544 353.75 740.868 358.807 740.841ZM358.807 743.157C355.454 743.157 353.537 743.955 353.564 745.392C353.537 746.829 355.454 747.601 358.807 747.601C362.134 747.601 363.971 746.829 363.971 745.392C363.971 743.955 362.134 743.157 358.807 743.157ZM393.168 738.259V740.628H371.237V738.259H393.168ZM390.693 747.016V749.411H373.952V742.411H376.906V747.016H390.693ZM382.176 726.601C387.419 726.601 390.826 728.438 390.853 731.472C390.826 734.533 387.419 736.396 382.176 736.396C376.933 736.396 373.499 734.533 373.499 731.472C373.499 728.438 376.933 726.601 382.176 726.601ZM382.176 728.97C378.689 728.97 376.56 729.875 376.587 731.472C376.56 733.096 378.689 734.001 382.176 733.974C385.689 734.001 387.792 733.096 387.792 731.472C387.792 729.875 385.689 728.97 382.176 728.97ZM421.408 725.83V737.913H418.453V733.229H414.115C413.53 735.85 411.081 737.594 407.94 737.594C404.294 737.594 401.579 735.305 401.579 732.031C401.579 728.837 404.294 726.575 407.94 726.575C411.068 726.575 413.503 728.292 414.115 730.833H418.453V725.83H421.408ZM407.94 728.97C405.864 728.97 404.4 730.195 404.4 732.031C404.4 733.974 405.864 735.172 407.94 735.172C409.936 735.172 411.4 733.974 411.427 732.031C411.4 730.195 409.936 728.97 407.94 728.97ZM421.408 739.084V745.312H408.526V747.255H422.18V749.598H405.571V743.13H418.453V741.373H405.545V739.084H421.408ZM437.058 728.172V743.928H425.666V728.172H437.058ZM428.568 730.487V741.56H434.104V730.487H428.568ZM443.659 725.83V735.065H447.358V737.567H443.659V749.89H440.704V725.83H443.659ZM455.183 726.601C458.83 726.601 461.545 728.864 461.571 732.031C461.545 735.225 458.83 737.461 455.183 737.461C451.51 737.461 448.796 735.225 448.796 732.031C448.796 728.864 451.51 726.601 455.183 726.601ZM455.183 729.05C453.161 729.05 451.67 730.195 451.67 732.031C451.67 733.894 453.161 735.065 455.183 735.065C457.206 735.065 458.697 733.894 458.697 732.031C458.697 730.195 457.206 729.05 455.183 729.05ZM468.412 725.83V737.993H465.431V725.83H468.412ZM468.412 739.031V745.312H455.396V747.255H469.13V749.598H452.495V743.13H465.457V741.347H452.442V739.031H468.412ZM491.115 725.83V735.438H494.442V737.887H491.115V749.89H488.134V725.83H491.115ZM479.138 728.358C479.111 734.666 478.233 739.989 473.894 744.674L471.579 742.997C474.972 739.404 476.077 735.598 476.316 730.78H472.537V728.358H479.138ZM485.792 728.358C485.765 734.826 485.1 741.001 480.761 746.217L478.392 744.594C481.826 740.508 482.784 735.997 482.997 730.78H479.936V728.358H485.792ZM517.465 744.541V746.963H495.48V744.541H500.564V738.445C498.647 737.354 497.489 735.638 497.503 733.495C497.476 729.662 501.256 727.134 506.419 727.134C511.609 727.134 515.389 729.662 515.389 733.495C515.389 735.598 514.271 737.288 512.408 738.392V744.541H517.465ZM506.419 729.476C502.826 729.476 500.377 730.993 500.404 733.495C500.377 735.97 502.826 737.514 506.419 737.514C510.012 737.514 512.487 735.97 512.487 733.495C512.487 730.993 510.012 729.476 506.419 729.476ZM503.491 744.541H509.4V739.51C508.482 739.723 507.484 739.83 506.419 739.83C505.381 739.83 504.396 739.723 503.491 739.537V744.541ZM523.107 741.613C523.134 738.233 524.092 737.195 525.769 736.157C526.913 735.438 527.765 734.533 527.765 733.202C527.765 731.712 526.62 730.753 525.157 730.753C523.826 730.753 522.548 731.605 522.468 733.388H519.141C519.221 729.822 521.909 727.985 525.183 727.985C528.776 727.985 531.252 729.982 531.252 733.149C531.252 735.305 530.16 736.715 528.43 737.753C526.887 738.685 526.248 739.617 526.221 741.613V741.852H523.107V741.613ZM524.757 747.734C523.613 747.734 522.681 746.803 522.681 745.658C522.681 744.541 523.613 743.609 524.757 743.609C525.849 743.609 526.807 744.541 526.807 745.658C526.807 746.803 525.849 747.734 524.757 747.734Z" fill="#0F1811"/>
<rect x="276.604" y="78.7461" width="98.2085" height="36.3069" rx="18.1534" fill="white" fill-opacity="0.7" stroke="#90BACE" stroke-width="2.42264"/>
<path d="M299.386 98.7825H302.599L303.685 100.123C304.321 99.2795 304.679 98.0081 304.679 96.3785C304.679 93.05 303.2 91.247 300.75 91.247C298.299 91.247 296.82 93.05 296.82 96.3785C296.82 99.7071 298.299 101.51 300.75 101.51C300.981 101.51 301.212 101.498 301.443 101.464L299.386 98.7825ZM308.701 96.3785C308.701 99.3257 307.719 101.568 306.112 103.036L308.562 106.064H304.98L303.685 104.492C302.784 104.815 301.79 104.977 300.75 104.977C296.242 104.977 292.798 101.88 292.798 96.3785C292.798 90.8541 296.242 87.7798 300.75 87.7798C305.234 87.7798 308.701 90.8541 308.701 96.3785ZM319.126 99.3372V92.1947H323.009V104.746H319.311V102.435H319.172C318.617 103.937 317.231 104.908 315.335 104.908C312.769 104.908 311.036 103.059 311.036 100.192V92.1947H314.942V99.4528C314.942 100.817 315.705 101.672 316.953 101.672C318.155 101.672 319.126 100.84 319.126 99.3372ZM325.529 104.746V92.1947H329.435V104.746H325.529ZM327.494 90.6923C326.384 90.6923 325.483 89.8601 325.483 88.82C325.483 87.7798 326.384 86.9477 327.494 86.9477C328.603 86.9477 329.528 87.7798 329.528 88.82C329.528 89.8601 328.603 90.6923 327.494 90.6923ZM331.955 104.746V102.504L337.826 95.3152V95.2228H332.14V92.1947H342.472V94.6449L337.017 101.626V101.695H342.68V104.746H331.955ZM347.395 104.977C346.24 104.977 345.292 104.053 345.315 102.874C345.292 101.741 346.24 100.817 347.395 100.817C348.505 100.817 349.476 101.741 349.499 102.874C349.476 104.053 348.505 104.977 347.395 104.977ZM357.635 88.0109V104.746H353.683V91.7093H353.59L349.823 94.0208V90.5998L353.96 88.0109H357.635Z" fill="#78858C"/>
</g>
<defs>
<filter id="filter0_f_2545_935" x="266.257" y="415.312" width="42.198" height="42.198" filterUnits="userSpaceOnUse" color-interpolation-filters="sRGB">
<feFlood flood-opacity="0" result="BackgroundImageFix"/>
<feBlend mode="normal" in="SourceGraphic" in2="BackgroundImageFix" result="shape"/>
<feGaussianBlur stdDeviation="0.60566" result="effect1_foregroundBlur_2545_935"/>
</filter>
<filter id="filter1_f_2545_935" x="251.962" y="382.812" width="44.6207" height="44.6207" filterUnits="userSpaceOnUse" color-interpolation-filters="sRGB">
<feFlood flood-opacity="0" result="BackgroundImageFix"/>
<feBlend mode="normal" in="SourceGraphic" in2="BackgroundImageFix" result="shape"/>
<feGaussianBlur stdDeviation="1.21132" result="effect1_foregroundBlur_2545_935"/>
</filter>
<filter id="filter2_f_2545_935" x="291.746" y="462.355" width="51.0199" height="51.0219" filterUnits="userSpaceOnUse" color-interpolation-filters="sRGB">
<feFlood flood-opacity="0" result="BackgroundImageFix"/>
<feBlend mode="normal" in="SourceGraphic" in2="BackgroundImageFix" result="shape"/>
<feGaussianBlur stdDeviation="0.30283" result="effect1_foregroundBlur_2545_935"/>
</filter>
<linearGradient id="paint0_linear_2545_935" x1="0" y1="327.056" x2="687.719" y2="327.056" gradientUnits="userSpaceOnUse">
<stop stop-color="#63C8FF"/>
<stop offset="1" stop-color="#C5EBFF"/>
</linearGradient>
<linearGradient id="paint1_linear_2545_935" x1="328.633" y1="472.479" x2="328.633" y2="682.977" gradientUnits="userSpaceOnUse">
<stop stop-color="#85CCF2" stop-opacity="0"/>
<stop offset="1" stop-color="#85CCF2"/>
</linearGradient>
<linearGradient id="paint2_linear_2545_935" x1="328.633" y1="682.713" x2="328.633" y2="1130.96" gradientUnits="userSpaceOnUse">
<stop stop-color="#FFF1BE"/>
<stop offset="0.8125" stop-color="#FFC25F"/>
</linearGradient>
<clipPath id="clip0_2545_935">
<rect width="1162.87" height="654.113" fill="white" transform="translate(654.113 2.85922e-05) rotate(90)"/>
</clipPath>
</defs>
</svg>
