<svg width="564" height="564" viewBox="0 0 564 564" fill="none" xmlns="http://www.w3.org/2000/svg">
<circle cx="281.762" cy="281.762" r="281.762" fill="#5589C1" fill-opacity="0.4"/>
<path d="M283.932 55.7695C306.267 55.9801 327.822 59.4464 348.165 65.6895L348.166 65.6875C440.563 94.0551 507.755 180.045 507.755 281.755C507.754 406.571 406.569 507.755 281.753 507.755C258.571 507.755 236.202 504.257 215.141 497.769V497.77C215.009 497.73 214.665 497.627 214.476 497.569L214.462 497.565C122.517 468.922 55.7657 383.142 55.7656 281.761L55.7705 280.299C56.557 156.155 157.439 55.7598 281.768 55.7598L283.932 55.7695Z" fill="#407AB9" stroke="white" stroke-width="7"/>
<path d="M347.139 69.0333C437.64 97.2467 503.34 181.695 503.34 281.487C503.34 404.371 403.723 503.988 280.839 503.988C258.094 503.988 236.157 500.559 215.489 494.216C236.419 500.738 258.675 504.255 281.753 504.255C404.637 504.255 504.255 404.638 504.255 281.754C504.255 181.625 438.108 96.9624 347.139 69.0333Z" fill="#407AB9"/>
<path d="M503.354 281.494C503.354 181.702 437.654 97.2538 347.152 69.0404C326.476 62.6934 304.526 59.2598 281.767 59.2598C158.884 59.2598 59.2656 158.877 59.2656 281.761C59.2656 381.567 124.979 466.023 215.503 494.224C236.171 500.566 258.107 503.996 280.853 503.996C403.737 503.996 503.354 404.378 503.354 281.494ZM399.516 292.928C394.472 292.928 390.391 296.038 388.873 297.377C385.514 300.329 380.304 299.529 377.986 295.702L375.974 292.382C374.189 289.433 374.749 285.632 377.308 283.323C383.908 277.378 391.935 274.233 400.522 274.233C420.249 274.233 427.414 289.477 427.414 299.721C427.414 313.662 418.871 323.819 405.25 336.683H423.372C426.662 336.683 429.326 339.347 429.326 342.637V349.22C429.326 352.509 426.662 355.173 423.372 355.173H382.071C376.905 355.173 372.72 350.987 372.72 345.821C372.72 343.21 373.813 340.716 375.733 338.945L381.472 333.661C402.035 314.616 408.019 308.019 408.019 301.025C408.019 295.12 405.714 292.924 399.511 292.924L399.516 292.928ZM220.914 324.667C213.364 328.442 201.676 330.695 189.638 330.695C162.943 330.695 134.217 313.745 134.217 276.53C134.217 249.239 154.417 221.612 193.024 221.612C203.736 221.612 213.237 223.453 220.507 226.935C225.594 229.371 227.938 235.32 225.887 240.569L223.879 245.713C221.57 251.618 214.689 254.265 209.02 251.426C206.002 249.913 200.311 248.303 193.404 248.303C173.554 248.303 162.168 258.775 162.168 277.033C162.168 293.842 173.283 303.877 191.9 303.877C198.531 303.877 205.236 302.582 209.405 300.5C215.096 297.657 221.994 300.334 224.277 306.27L226.158 311.169C228.149 316.348 225.878 322.187 220.914 324.667ZM244.569 277.282C244.569 245.543 267.638 221.612 298.231 221.612C328.824 221.612 351.019 244.073 351.019 275.025C351.019 311.576 324.026 330.695 297.361 330.695C267.267 330.695 244.569 307.731 244.569 277.282Z" fill="#407AB9"/>
<path d="M323.068 275.517C323.068 266.056 317.823 248.17 297.978 248.17C279.199 248.17 272.507 263.077 272.507 277.026C272.507 290.49 281.124 304.124 297.602 304.124C313.069 304.124 323.068 292.891 323.068 275.517Z" fill="#407AB9"/>
<path d="M224.268 306.262C221.989 300.326 215.086 297.645 209.395 300.488C205.227 302.575 198.517 303.865 191.89 303.865C173.273 303.865 162.159 293.831 162.159 277.021C162.159 258.763 173.545 248.291 193.395 248.291C200.301 248.291 205.992 249.905 209.01 251.414C214.679 254.253 221.564 251.607 223.869 245.702L225.877 240.558C227.928 235.304 225.584 229.36 220.497 226.923C213.231 223.441 203.726 221.6 193.014 221.6C154.412 221.6 134.208 249.227 134.208 276.518C134.208 313.733 162.932 330.683 189.628 330.683C201.666 330.683 213.358 328.43 220.904 324.656C225.864 322.175 228.13 316.332 226.144 311.157L224.263 306.258L224.268 306.262Z" fill="#85CCF2"/>
<path d="M351.019 275.025C351.019 244.073 328.824 221.612 298.231 221.612C267.638 221.612 244.569 245.543 244.569 277.282C244.569 307.731 267.267 330.695 297.361 330.695C324.026 330.695 351.019 311.576 351.019 275.025ZM272.517 277.029C272.517 263.08 279.205 248.173 297.988 248.173C317.833 248.173 323.078 266.063 323.078 275.52C323.078 292.899 313.083 304.123 297.611 304.123C281.134 304.123 272.517 290.497 272.517 277.029Z" fill="#85CCF2"/>
<path d="M381.472 333.661L375.733 338.945C373.813 340.716 372.72 343.21 372.72 345.821C372.72 350.987 376.905 355.173 382.071 355.173H423.372C426.662 355.173 429.326 352.509 429.326 349.22V342.637C429.326 339.347 426.662 336.683 423.372 336.683H405.25C418.871 323.819 427.414 313.662 427.414 299.721C427.414 289.477 420.249 274.233 400.522 274.233C391.935 274.233 383.908 277.378 377.308 283.323C374.749 285.632 374.189 289.433 375.974 292.382L377.986 295.702C380.304 299.529 385.514 300.329 388.873 297.377C390.391 296.038 394.472 292.928 399.516 292.928C405.718 292.928 408.024 295.126 408.024 301.032C408.024 308.026 402.04 314.618 381.477 333.667L381.472 333.661Z" fill="#85CCF2"/>
</svg>
