<svg width="488" height="211" viewBox="0 0 488 211" fill="none" xmlns="http://www.w3.org/2000/svg">
<path d="M484.22 145.334V198.226C484.22 203.236 480.162 207.294 475.152 207.294H12.0617C7.06045 207.294 3.00195 203.236 3.00195 198.226V145.334C3.00195 140.332 7.06045 136.274 12.0617 136.274H475.152C480.162 136.274 484.22 140.332 484.22 145.334Z" fill="#0F1811"/>
<path d="M456.7 184.029C456.7 191.909 456.111 199.672 454.957 207.284H32.2724C31.1189 199.672 30.5293 191.909 30.5293 184.029C30.5293 168.2 32.9206 152.842 37.4167 138.209C37.6188 137.56 37.8209 136.912 38.0314 136.264C54.896 83.7082 98.9475 40.6752 156.547 18.742C157.574 18.3547 158.609 17.9674 159.653 17.5885C185.418 8.19213 213.8 2.98877 243.615 2.98877C246.292 2.98877 248.961 3.03086 251.613 3.11506C252.514 3.14032 253.407 3.17402 254.308 3.21612C278.245 4.21806 301.138 8.57944 322.364 15.753C323.105 16.0056 323.837 16.2582 324.57 16.5108C349.736 25.3009 372.495 38.0651 391.742 53.8773C392.23 54.2814 392.719 54.6856 393.207 55.0897C419.56 77.1745 439.178 105.035 449.189 136.264C449.408 136.912 449.61 137.56 449.812 138.209C454.308 152.842 456.7 168.2 456.7 184.029Z" fill="#0F1811"/>
<path d="M251.619 3.11506L227.573 53.4226L225.746 57.2452L216.636 76.3157L209.479 91.2859L187.983 136.264L154.044 207.284H66.4453L100.394 136.264L156.553 18.742C157.58 18.3547 158.615 17.9674 159.66 17.5885C185.424 8.19213 213.807 2.98877 243.621 2.98877C246.298 2.98877 248.967 3.03086 251.619 3.11506Z" fill="#35D047"/>
<path d="M391.749 53.8792L352.37 136.266L318.43 207.286H230.832L264.78 136.266L288.044 87.5916L298.349 66.0204L322.371 15.7549C323.111 16.0075 323.844 16.2601 324.577 16.5126C349.743 25.3028 372.502 38.067 391.749 53.8792Z" fill="#35D047"/>
<path d="M257.542 32.0444C258.665 31.5315 260 31.7578 260.892 32.6353C267.916 39.5474 283.641 52.8728 310.303 58.1597L311.581 58.4058L311.818 58.4595C312.987 58.7765 313.86 59.7721 314.01 60.9897C314.193 62.486 314.284 64.0058 314.284 65.5396C314.284 86.6709 297.155 103.801 276.023 103.801C262.055 103.801 249.851 96.32 243.176 85.1538C236.495 96.3193 224.293 103.801 210.324 103.801C189.193 103.801 172.063 86.671 172.062 65.5396C172.062 64.0064 172.153 62.4866 172.337 60.9897L172.377 60.7495C172.621 59.5635 173.56 58.6304 174.766 58.4058C202.196 53.298 218.311 39.6576 225.456 32.6343L225.641 32.4673C226.589 31.678 227.936 31.5452 229.026 32.1567C234.862 35.4289 239.744 40.1903 243.175 45.9263C246.602 40.1896 251.485 35.4286 257.32 32.1567L257.542 32.0444Z" fill="white" stroke="black" stroke-width="6" stroke-linecap="round" stroke-linejoin="round"/>
<path d="M222.804 73.3801C227.678 73.3801 231.628 69.4295 231.628 64.5562C231.628 59.683 227.678 55.7324 222.804 55.7324C217.931 55.7324 213.98 59.683 213.98 64.5562C213.98 69.4295 217.931 73.3801 222.804 73.3801Z" fill="black"/>
<path d="M264.42 73.3801C269.293 73.3801 273.243 69.4295 273.243 64.5562C273.243 59.683 269.293 55.7324 264.42 55.7324C259.546 55.7324 255.596 59.683 255.596 64.5562C255.596 69.4295 259.546 73.3801 264.42 73.3801Z" fill="black"/>
<path d="M475.15 136.275H449.184C439.173 105.046 419.555 77.1858 393.201 55.101C392.713 54.6968 392.225 54.2927 391.737 53.8885C372.489 38.0764 349.731 25.3121 324.564 16.522C323.832 16.2694 323.099 16.0168 322.358 15.7642C301.132 8.59067 278.239 4.22926 254.302 3.22732C253.401 3.18522 252.509 3.15155 251.608 3.12629C248.956 3.04209 246.287 3 243.609 3C213.795 3 185.412 8.20336 159.648 17.5997C158.604 17.9786 157.568 18.3659 156.541 18.7532C98.9421 40.6865 54.8905 83.7194 38.0259 136.275H12.0598C7.0585 136.275 3 140.333 3 145.335V198.227C3 203.237 7.0585 207.295 12.0598 207.295H475.15C480.16 207.295 484.218 203.237 484.218 198.227V145.335C484.218 140.333 480.16 136.275 475.15 136.275Z" stroke="black" stroke-width="6" stroke-linecap="round" stroke-linejoin="round"/>
</svg>
