<svg width="461" height="366" viewBox="0 0 461 366" fill="none" xmlns="http://www.w3.org/2000/svg">
<path d="M93.4912 3.62207C97.3945 3.62061 103.397 3.16825 108.673 4.02051C114.157 4.90656 119.898 7.32717 122.92 13.71C124.373 16.7799 125.432 20.5125 126.297 24.0742C126.734 25.8758 127.134 27.6905 127.512 29.4053C127.892 31.1352 128.248 32.7529 128.606 34.2266L133.857 54.8965L339.774 54.2451H339.78L409.745 54.1289H409.759C414.276 54.1393 420.25 54.4242 424.134 54.0645C434.798 53.0773 442.65 54.0685 448.098 57.1621C453.828 60.4162 456.325 65.6462 456.966 71.5283C457.585 77.214 456.516 83.7637 455.033 90.3477C454.283 93.6772 453.401 97.1212 452.524 100.557C451.643 104.009 450.764 107.464 449.996 110.9L449.997 110.901L432.514 189.478L432.515 189.479L425.854 220.026C425.25 222.796 424.507 227.465 423.474 231.458C422.427 235.5 420.826 240.06 417.876 243.098L417.87 243.104C415.406 245.627 412.308 247.443 408.901 248.361L408.893 248.363L408.883 248.366C407.215 248.805 404.16 249.007 400.891 249.13C397.451 249.259 393.28 249.309 389.07 249.324C384.824 249.339 380.577 249.319 376.939 249.304C380.439 252.626 384.017 255.904 387.611 259.272C390.833 262.292 394.964 265.77 398.053 269.878L398.349 270.277L398.35 270.279C399.089 271.297 399.738 272.689 400.308 274.104C400.904 275.585 401.515 277.354 402.124 279.29C403.344 283.165 404.613 287.876 405.804 292.629C407.606 299.82 409.257 307.21 410.324 312.144C412.37 311.359 414.425 310.5 416.528 309.608C419.854 308.199 423.323 306.706 426.871 305.448L426.872 305.447C438.942 301.174 450.894 308.677 454.01 320.377C455.447 325.737 454.638 331.45 451.78 336.202L451.779 336.203C448.443 341.746 442.286 345.074 436.538 347.496C433.601 348.734 430.547 349.82 427.773 350.83C424.945 351.861 422.424 352.807 420.319 353.817L420.318 353.818C418.17 354.848 415.857 355.763 413.652 356.616C411.403 357.487 409.288 358.287 407.341 359.14L407.339 359.141C399.872 362.405 391.518 364.07 383.234 358.702V358.703C376.487 354.441 374.516 346.568 373.115 340.954L373.114 340.952C370.497 330.449 367.449 319.535 364.942 308.835C364.526 307.353 363.579 303.485 362.69 300.104C362.219 298.31 361.752 296.606 361.35 295.289C361.147 294.627 360.975 294.109 360.838 293.744C360.801 293.646 360.769 293.572 360.747 293.519C355.918 287.472 347.336 279.486 341.481 273.782L341.472 273.773C333.35 265.803 325.278 257.782 317.253 249.719C282.588 249.557 247.085 250.259 212.346 249.88C207.306 260.69 201.638 271.424 195.995 282.077C189.977 293.439 183.99 304.708 178.716 316.048C174.753 324.567 166.808 326.742 159.351 326.739C152.059 326.737 143.997 324.654 138.658 323.636H138.656L115.309 319.162C115.065 320.695 114.8 322.211 114.535 323.699C114.055 326.402 113.582 329.005 113.221 331.61C112.427 337.327 110.189 342.894 105.284 347.02L105.278 347.024L105.271 347.029C100.59 350.932 94.4961 352.713 88.4482 351.941C82.7014 351.217 77.503 348.168 74.0684 343.505C69.3016 337.123 69.578 331.144 70.6455 324.741L70.6475 324.727L70.6504 324.712L74.4082 303.297C75.2668 298.338 76.0238 291.079 78.6143 285.266C79.9573 282.252 81.8808 279.376 84.7568 277.222C87.6662 275.043 91.3113 273.783 95.7725 273.639L96.5146 273.623C100.252 273.587 104.375 274.165 108.293 274.875C110.403 275.257 112.507 275.689 114.506 276.103C116.515 276.518 118.402 276.913 120.152 277.242H120.153L147.355 282.233C152.832 271.364 158.599 260.827 163.813 250.099C163.782 250.099 163.75 250.101 163.718 250.102C161.808 250.145 159.742 250.202 157.691 250.143C153.727 250.028 149.396 249.478 145.426 247.281L145.042 247.063C140.045 244.144 137.545 239.06 136.033 234.251C134.575 229.61 133.728 223.984 132.873 220.329L132.87 220.315L132.867 220.303L122.874 176.071L122.875 176.07C112.813 131.801 102.208 87.6558 91.0654 43.6455C76.7482 43.8241 62.4296 43.888 48.1113 43.833C39.7959 43.8387 31.3341 43.9474 22.8965 43.6943C13.9396 43.4258 7.00743 38.0346 4.37207 29.4883L4.36914 29.4775C2.7364 24.1207 3.42465 18.3242 6.26758 13.499H6.26855C9.62054 7.70976 14.2006 5.53319 19.5371 3.98633L19.8848 3.88574L20.2471 3.8584C25.1751 3.48482 32.5262 3.68979 37.2041 3.68555L93.4883 3.62207H93.4912ZM209.301 171.864C193.416 171.852 177.425 171.757 161.604 171.912C162.801 177.778 164.23 183.772 165.69 189.858C167.259 196.392 168.86 203.034 170.198 209.625L209.286 209.573L209.301 171.864ZM261.608 171.621L261.609 171.622L247.072 171.731L247.083 209.388L295.229 209.241H308.664L308.693 171.499L261.608 171.621ZM396.845 171.086C380.166 171.026 362.515 170.807 346.058 171.146C346.016 183.612 345.845 196.527 346.009 208.861C360.066 208.822 374.566 208.667 388.646 208.79L389.73 204.038C391.948 193.284 394.281 181.948 396.845 171.086ZM143.987 94.7666C145.137 100.438 146.588 106.243 148.064 112.156C149.648 118.497 151.26 124.963 152.496 131.359L209.283 131.325L209.258 94.7344L143.987 94.7666ZM308.823 94.6182C288.34 94.5968 267.393 94.371 247.039 94.6426C247.069 106.717 247.172 119.077 247.062 131.192L308.798 131.061C308.814 119.25 308.579 106.487 308.823 94.6182ZM413.665 94.4199C408.46 94.3207 403.18 94.3445 397.961 94.3926C380.419 94.5545 363.368 94.2089 346.03 94.4189C346.135 106.582 346.152 118.746 346.078 130.91C365.681 130.857 385.96 130.588 405.578 130.79C405.943 129.379 406.304 127.981 406.648 126.581C408.268 118.647 411.208 104.048 413.665 94.4199Z" fill="#0F1811" stroke="#0F1811" stroke-width="7"/>
<path fill-rule="evenodd" clip-rule="evenodd" d="M93.4926 7.12179C102.122 7.11856 115.1 5.37271 119.756 15.2073C122.341 20.6686 123.725 28.9766 125.206 35.0544L131.138 58.4055L339.786 57.7453L409.751 57.6293C413.973 57.639 420.355 57.929 424.456 57.5491C466.121 53.6922 452.829 82.1651 446.58 110.141L429.095 188.733L422.434 219.281C421.061 225.578 419.899 235.992 415.366 240.659C413.339 242.733 410.792 244.227 407.991 244.982C403.118 246.265 375.586 245.668 368.357 245.817C373.802 251.319 379.566 256.53 385.218 261.826C388.754 265.14 392.657 268.406 395.519 272.337C399.305 277.545 406.034 308.694 407.737 316.787C414.603 314.527 421.187 311.177 428.041 308.747C437.97 305.231 447.981 311.326 450.629 321.284C451.82 325.724 451.15 330.459 448.781 334.398C443.351 343.42 427.932 346.283 418.805 350.662C414.781 352.592 410.009 354.149 405.937 355.933C398.901 359.009 391.946 360.196 385.104 355.744C379.723 352.345 377.972 345.963 376.511 340.106C373.847 329.414 370.847 318.704 368.337 307.979C367.557 305.254 364.643 292.803 363.662 291.559C358.681 285.254 349.704 276.906 343.924 271.275C335.467 262.976 327.063 254.625 318.712 246.225C282.621 246.031 246.135 246.802 210.119 246.358C199.67 269.164 186.181 291.697 175.543 314.572C169.29 328.013 150.696 322.369 139.314 320.198L112.365 315.036C111.698 320.42 110.499 325.756 109.754 331.129C109.041 336.267 107.086 340.93 103.031 344.341C99.0944 347.622 93.9701 349.12 88.8862 348.47C84.0844 347.864 79.7422 345.314 76.8763 341.414C72.9701 336.187 73.0822 331.408 74.0978 325.317L77.8572 303.895C79.7095 293.198 80.5398 277.633 95.8857 277.137C102.976 276.907 112.34 279.337 119.522 280.685L149.309 286.15C155.839 273.019 163.187 259.856 169.348 246.616C161.947 246.245 153.45 247.92 146.807 244.041C139.077 239.524 138.221 227.823 136.281 219.532L126.288 175.3C116.016 130.104 105.18 85.0376 93.7822 40.1123C78.5617 40.3181 63.3394 40.3919 48.1177 40.3334C39.7421 40.339 31.3705 40.4466 23.001 40.1956C15.5695 39.9728 9.91949 35.601 7.71667 28.4574C6.36969 24.0382 6.9378 19.2562 9.28302 15.2758C11.9959 10.5755 15.5873 8.77561 20.5113 7.34833C25.2659 6.98787 32.3309 7.19007 37.2078 7.18563L93.4926 7.12179ZM212.802 168.367C194.401 168.369 175.739 168.225 157.361 168.46C160.055 182.991 164.484 198.279 167.322 213.129L212.785 213.069L212.802 168.367ZM261.583 168.122L243.572 168.259L243.584 212.899L295.239 212.742H312.161L312.197 167.99L261.583 168.122ZM401.283 167.601C382.259 167.572 361.491 167.238 342.568 167.727C342.552 182.312 342.29 197.848 342.564 212.371C358.686 212.351 375.349 212.132 391.431 212.318L393.15 204.786C395.669 192.572 398.321 179.687 401.283 167.601ZM139.76 91.2691C142.264 105.489 147.072 120.479 149.583 134.861L212.786 134.823L212.756 91.2333L139.76 91.2691ZM312.411 91.1235C289.701 91.1295 266.185 90.8242 243.532 91.1936C243.548 105.58 243.709 120.335 243.524 134.7L312.286 134.554C312.375 120.442 311.991 105.1 312.411 91.1235ZM418.208 91.0379C411.508 90.8054 404.638 90.8313 397.929 90.8931C379.478 91.0634 360.938 90.6638 342.499 90.9701C342.644 105.453 342.665 119.938 342.556 134.421C364.232 134.393 386.667 134.046 408.282 134.32C408.876 132.008 409.493 129.674 410.063 127.357C411.968 118.024 415.633 99.7942 418.208 91.0379Z" fill="#407AB9"/>
<g opacity="0.9" style="mix-blend-mode:multiply">
<path d="M93.4912 4.62207C97.512 4.62057 103.343 4.17268 108.513 5.00781C113.831 5.86708 119.192 8.1735 122.016 14.1377L122.275 14.7031C123.552 17.5667 124.518 20.9819 125.325 24.3096C125.76 26.0992 126.157 27.9041 126.535 29.6201C126.913 31.3375 127.269 32.9583 127.629 34.4385L133.08 55.8984L339.778 55.2451H339.781L409.747 55.1289H409.757C414.19 55.1391 420.28 55.425 424.226 55.0596C434.819 54.079 442.422 55.0891 447.604 58.0312C452.987 61.0882 455.356 65.9876 455.972 71.6367C456.572 77.1455 455.538 83.5557 454.058 90.1279C453.311 93.441 452.432 96.8704 451.555 100.31C450.674 103.762 449.792 107.232 449.021 110.687L431.535 189.275L424.876 219.813C424.249 222.692 423.537 227.221 422.505 231.208C421.464 235.23 419.914 239.564 417.159 242.4L417.154 242.405C414.815 244.8 411.875 246.524 408.642 247.396L408.628 247.399C407.089 247.805 404.154 248.007 400.853 248.131C397.43 248.259 393.272 248.309 389.066 248.324C383.827 248.343 378.554 248.309 374.439 248.297C378.524 252.229 382.725 256.065 386.927 260.002C390.101 262.977 393.976 266.247 396.956 270.09L397.54 270.866L397.541 270.867C398.205 271.78 398.816 273.076 399.38 274.477C399.963 275.925 400.565 277.668 401.17 279.591C402.381 283.438 403.645 288.127 404.834 292.872C406.777 300.623 408.541 308.609 409.589 313.488C412.02 312.59 414.445 311.576 416.918 310.528C420.254 309.115 423.692 307.636 427.205 306.391H427.206C438.667 302.333 450.066 309.436 453.046 320.642H453.045C454.41 325.737 453.64 331.168 450.923 335.687V335.688C447.765 340.936 441.877 344.162 436.15 346.575C433.242 347.801 430.216 348.876 427.432 349.891C424.607 350.92 422.042 351.882 419.887 352.916H419.886C417.777 353.927 415.497 354.83 413.292 355.684C411.056 356.549 408.912 357.359 406.939 358.224H406.938C399.586 361.438 391.621 362.968 383.74 357.84V357.839C377.407 353.819 375.501 346.386 374.085 340.712V340.711C371.456 330.158 368.422 319.308 365.915 308.605C365.509 307.168 364.566 303.306 363.657 299.85C363.185 298.053 362.715 296.333 362.307 294.997C362.102 294.326 361.922 293.785 361.773 293.392C361.688 293.164 361.633 293.044 361.612 292.998C356.746 286.873 348.026 278.762 342.179 273.066L342.173 273.06C333.955 264.995 325.788 256.88 317.67 248.721C282.601 248.55 246.81 249.271 211.709 248.874C206.614 259.854 200.858 270.761 195.111 281.609C189.472 292.256 183.846 302.846 178.809 313.495L177.81 315.626C174.086 323.632 166.635 325.742 159.351 325.739C152.185 325.737 144.285 323.691 138.846 322.653H138.844L114.479 317.986C114.196 319.854 113.873 321.704 113.55 323.524C113.071 326.22 112.595 328.844 112.23 331.473C111.46 337.025 109.302 342.332 104.64 346.254L104.632 346.261C100.163 349.986 94.3459 351.686 88.5732 350.949V350.95C83.0978 350.26 78.1462 347.353 74.874 342.91V342.911C70.3504 336.857 70.5789 331.22 71.6318 324.905L71.6338 324.895L71.6357 324.885L75.3945 303.462C76.272 298.392 77.0045 291.335 79.5273 285.673C80.8234 282.764 82.6549 280.045 85.3564 278.021C88.0816 275.981 91.5221 274.776 95.8047 274.638L96.5264 274.623C100.164 274.589 104.212 275.152 108.115 275.859C110.211 276.239 112.304 276.667 114.303 277.081C116.313 277.497 118.218 277.897 119.984 278.229L147.913 283.353C153.71 271.808 159.91 260.532 165.418 249.069C164.854 249.078 164.28 249.089 163.695 249.103C161.777 249.146 159.74 249.202 157.721 249.144C153.689 249.027 149.405 248.453 145.547 246.2L145.546 246.199C140.872 243.468 138.473 238.679 136.987 233.951C135.539 229.343 134.734 223.896 133.847 220.101L133.845 220.092L133.843 220.082L123.85 175.851V175.85C113.728 131.316 103.057 86.908 91.8418 42.6367C77.2665 42.8229 62.6897 42.889 48.1133 42.833C39.7805 42.8387 31.3441 42.9469 22.9258 42.6943C14.405 42.4388 7.83996 37.3396 5.32812 29.1943L5.3252 29.1865C3.82256 24.2567 4.38969 18.9346 6.88184 14.4395L7.12891 14.0068C10.2982 8.52829 14.5968 6.45995 19.8154 4.94727L20.0645 4.875L20.3223 4.85547C25.2007 4.48562 32.4702 4.68984 37.2051 4.68555L93.4902 4.62207H93.4912ZM210.301 170.865C193.69 170.856 176.937 170.749 160.381 170.926C161.629 177.192 163.161 183.6 164.719 190.092C166.352 196.897 168.013 203.795 169.378 210.626L210.286 210.572L210.301 170.865ZM261.602 170.621L246.072 170.739L246.083 210.391L295.231 210.241H309.663L309.693 170.496L261.602 170.621ZM398.11 170.09C380.748 170.036 362.226 169.791 345.061 170.17C345.024 183.251 344.831 196.9 345.022 209.864C359.668 209.829 374.788 209.659 389.441 209.798L390.713 204.229C393.014 193.069 395.437 181.301 398.11 170.09ZM142.769 93.7676C143.958 99.8497 145.516 106.077 147.095 112.398C148.747 119.015 150.421 125.733 151.668 132.359L210.284 132.324L210.257 93.7344L142.769 93.7676ZM309.843 93.6201C288.72 93.6054 267.048 93.3596 246.037 93.6572C246.065 106.39 246.179 119.434 246.049 132.194L309.797 132.059C309.83 119.598 309.554 106.097 309.843 93.6201ZM414.95 93.4473C409.32 93.317 403.594 93.3406 397.952 93.3926C380.148 93.557 362.684 93.198 345.021 93.4336C345.137 106.26 345.155 119.087 345.071 131.913C365.264 131.866 386.16 131.576 406.351 131.798C406.785 130.122 407.216 128.46 407.625 126.798C409.32 118.496 412.444 102.979 414.95 93.4473Z" fill="url(#paint0_linear_2626_141)"/>
<path d="M93.4912 4.62207C97.512 4.62057 103.343 4.17268 108.513 5.00781C113.831 5.86708 119.192 8.1735 122.016 14.1377L122.275 14.7031C123.552 17.5667 124.518 20.9819 125.325 24.3096C125.76 26.0992 126.157 27.9041 126.535 29.6201C126.913 31.3375 127.269 32.9583 127.629 34.4385L133.08 55.8984L339.778 55.2451H339.781L409.747 55.1289H409.757C414.19 55.1391 420.28 55.425 424.226 55.0596C434.819 54.079 442.422 55.0891 447.604 58.0312C452.987 61.0882 455.356 65.9876 455.972 71.6367C456.572 77.1455 455.538 83.5557 454.058 90.1279C453.311 93.441 452.432 96.8704 451.555 100.31C450.674 103.762 449.792 107.232 449.021 110.687L431.535 189.275L424.876 219.813C424.249 222.692 423.537 227.221 422.505 231.208C421.464 235.23 419.914 239.564 417.159 242.4L417.154 242.405C414.815 244.8 411.875 246.524 408.642 247.396L408.628 247.399C407.089 247.805 404.154 248.007 400.853 248.131C397.43 248.259 393.272 248.309 389.066 248.324C383.827 248.343 378.554 248.309 374.439 248.297C378.524 252.229 382.725 256.065 386.927 260.002C390.101 262.977 393.976 266.247 396.956 270.09L397.54 270.866L397.541 270.867C398.205 271.78 398.816 273.076 399.38 274.477C399.963 275.925 400.565 277.668 401.17 279.591C402.381 283.438 403.645 288.127 404.834 292.872C406.777 300.623 408.541 308.609 409.589 313.488C412.02 312.59 414.445 311.576 416.918 310.528C420.254 309.115 423.692 307.636 427.205 306.391H427.206C438.667 302.333 450.066 309.436 453.046 320.642H453.045C454.41 325.737 453.64 331.168 450.923 335.687V335.688C447.765 340.936 441.877 344.162 436.15 346.575C433.242 347.801 430.216 348.876 427.432 349.891C424.607 350.92 422.042 351.882 419.887 352.916H419.886C417.777 353.927 415.497 354.83 413.292 355.684C411.056 356.549 408.912 357.359 406.939 358.224H406.938C399.586 361.438 391.621 362.968 383.74 357.84V357.839C377.407 353.819 375.501 346.386 374.085 340.712V340.711C371.456 330.158 368.422 319.308 365.915 308.605C365.509 307.168 364.566 303.306 363.657 299.85C363.185 298.053 362.715 296.333 362.307 294.997C362.102 294.326 361.922 293.785 361.773 293.392C361.688 293.164 361.633 293.044 361.612 292.998C356.746 286.873 348.026 278.762 342.179 273.066L342.173 273.06C333.955 264.995 325.788 256.88 317.67 248.721C282.601 248.55 246.81 249.271 211.709 248.874C206.614 259.854 200.858 270.761 195.111 281.609C189.472 292.256 183.846 302.846 178.809 313.495L177.81 315.626C174.086 323.632 166.635 325.742 159.351 325.739C152.185 325.737 144.285 323.691 138.846 322.653H138.844L114.479 317.986C114.196 319.854 113.873 321.704 113.55 323.524C113.071 326.22 112.595 328.844 112.23 331.473C111.46 337.025 109.302 342.332 104.64 346.254L104.632 346.261C100.163 349.986 94.3459 351.686 88.5732 350.949V350.95C83.0978 350.26 78.1462 347.353 74.874 342.91V342.911C70.3504 336.857 70.5789 331.22 71.6318 324.905L71.6338 324.895L71.6357 324.885L75.3945 303.462C76.272 298.392 77.0045 291.335 79.5273 285.673C80.8234 282.764 82.6549 280.045 85.3564 278.021C88.0816 275.981 91.5221 274.776 95.8047 274.638L96.5264 274.623C100.164 274.589 104.212 275.152 108.115 275.859C110.211 276.239 112.304 276.667 114.303 277.081C116.313 277.497 118.218 277.897 119.984 278.229L147.913 283.353C153.71 271.808 159.91 260.532 165.418 249.069C164.854 249.078 164.28 249.089 163.695 249.103C161.777 249.146 159.74 249.202 157.721 249.144C153.689 249.027 149.405 248.453 145.547 246.2L145.546 246.199C140.872 243.468 138.473 238.679 136.987 233.951C135.539 229.343 134.734 223.896 133.847 220.101L133.845 220.092L133.843 220.082L123.85 175.851V175.85C113.728 131.316 103.057 86.908 91.8418 42.6367C77.2665 42.8229 62.6897 42.889 48.1133 42.833C39.7805 42.8387 31.3441 42.9469 22.9258 42.6943C14.405 42.4388 7.83996 37.3396 5.32812 29.1943L5.3252 29.1865C3.82256 24.2567 4.38969 18.9346 6.88184 14.4395L7.12891 14.0068C10.2982 8.52829 14.5968 6.45995 19.8154 4.94727L20.0645 4.875L20.3223 4.85547C25.2007 4.48562 32.4702 4.68984 37.2051 4.68555L93.4902 4.62207H93.4912ZM210.301 170.865C193.69 170.856 176.937 170.749 160.381 170.926C161.629 177.192 163.161 183.6 164.719 190.092C166.352 196.897 168.013 203.795 169.378 210.626L210.286 210.572L210.301 170.865ZM261.602 170.621L246.072 170.739L246.083 210.391L295.231 210.241H309.663L309.693 170.496L261.602 170.621ZM398.11 170.09C380.748 170.036 362.226 169.791 345.061 170.17C345.024 183.251 344.831 196.9 345.022 209.864C359.668 209.829 374.788 209.659 389.441 209.798L390.713 204.229C393.014 193.069 395.437 181.301 398.11 170.09ZM142.769 93.7676C143.958 99.8497 145.516 106.077 147.095 112.398C148.747 119.015 150.421 125.733 151.668 132.359L210.284 132.324L210.257 93.7344L142.769 93.7676ZM309.843 93.6201C288.72 93.6054 267.048 93.3596 246.037 93.6572C246.065 106.39 246.179 119.434 246.049 132.194L309.797 132.059C309.83 119.598 309.554 106.097 309.843 93.6201ZM414.95 93.4473C409.32 93.317 403.594 93.3406 397.952 93.3926C380.148 93.557 362.684 93.198 345.021 93.4336C345.137 106.26 345.155 119.087 345.071 131.913C365.264 131.866 386.16 131.576 406.351 131.798C406.785 130.122 407.216 128.46 407.625 126.798C409.32 118.496 412.444 102.979 414.95 93.4473Z" stroke="#0F1811" stroke-width="5"/>
</g>
<defs>
<linearGradient id="paint0_linear_2626_141" x1="230.323" y1="7" x2="230.323" y2="358.674" gradientUnits="userSpaceOnUse">
<stop stop-color="#0F1811" stop-opacity="0.92"/>
<stop offset="1" stop-color="#0F1811" stop-opacity="0.5"/>
</linearGradient>
</defs>
</svg>
